<?xml version="1.0" encoding="UTF-8" ?>
<svg version="1.1" width="64" height="32" xmlns="http://www.w3.org/2000/svg" shape-rendering="crispEdges">
<rect x="44" y="10" width="1" height="1" fill="#000000" />
<rect x="45" y="10" width="1" height="1" fill="#000000" />
<rect x="46" y="10" width="1" height="1" fill="#000000" />
<rect x="43" y="11" width="1" height="1" fill="#000000" />
<rect x="44" y="11" width="1" height="1" fill="#FFAAAA" />
<rect x="45" y="11" width="1" height="1" fill="#FFAAAA" />
<rect x="46" y="11" width="1" height="1" fill="#FFAAAA" />
<rect x="47" y="11" width="1" height="1" fill="#000000" />
<rect x="29" y="12" width="1" height="1" fill="#000000" />
<rect x="30" y="12" width="1" height="1" fill="#000000" />
<rect x="31" y="12" width="1" height="1" fill="#000000" />
<rect x="43" y="12" width="1" height="1" fill="#000000" />
<rect x="44" y="12" width="1" height="1" fill="#FFAAAA" />
<rect x="45" y="12" width="1" height="1" fill="#FFAAAA" />
<rect x="46" y="12" width="1" height="1" fill="#FFAAAA" />
<rect x="47" y="12" width="1" height="1" fill="#000000" />
<rect x="48" y="12" width="1" height="1" fill="#000000" />
<rect x="49" y="12" width="1" height="1" fill="#000000" />
<rect x="27" y="13" width="1" height="1" fill="#000000" />
<rect x="28" y="13" width="1" height="1" fill="#000000" />
<rect x="29" y="13" width="1" height="1" fill="#AAAAAA" />
<rect x="30" y="13" width="1" height="1" fill="#AAAAAA" />
<rect x="31" y="13" width="1" height="1" fill="#AAAAAA" />
<rect x="32" y="13" width="1" height="1" fill="#000000" />
<rect x="33" y="13" width="1" height="1" fill="#000000" />
<rect x="34" y="13" width="1" height="1" fill="#000000" />
<rect x="43" y="13" width="1" height="1" fill="#000000" />
<rect x="44" y="13" width="1" height="1" fill="#FFAAAA" />
<rect x="45" y="13" width="1" height="1" fill="#FFAAAA" />
<rect x="46" y="13" width="1" height="1" fill="#AAAAAA" />
<rect x="47" y="13" width="1" height="1" fill="#AAAAAA" />
<rect x="48" y="13" width="1" height="1" fill="#AAAAAA" />
<rect x="49" y="13" width="1" height="1" fill="#AAAAAA" />
<rect x="50" y="13" width="1" height="1" fill="#000000" />
<rect x="51" y="13" width="1" height="1" fill="#000000" />
<rect x="25" y="14" width="1" height="1" fill="#000000" />
<rect x="26" y="14" width="1" height="1" fill="#000000" />
<rect x="27" y="14" width="1" height="1" fill="#AAAAAA" />
<rect x="28" y="14" width="1" height="1" fill="#AAAAAA" />
<rect x="29" y="14" width="1" height="1" fill="#AAAAAA" />
<rect x="30" y="14" width="1" height="1" fill="#AAAAAA" />
<rect x="31" y="14" width="1" height="1" fill="#AAAAAA" />
<rect x="32" y="14" width="1" height="1" fill="#AAAAAA" />
<rect x="33" y="14" width="1" height="1" fill="#AAAAAA" />
<rect x="34" y="14" width="1" height="1" fill="#AAAAAA" />
<rect x="35" y="14" width="1" height="1" fill="#000000" />
<rect x="36" y="14" width="1" height="1" fill="#000000" />
<rect x="43" y="14" width="1" height="1" fill="#000000" />
<rect x="44" y="14" width="1" height="1" fill="#AAAAAA" />
<rect x="45" y="14" width="1" height="1" fill="#AAAAAA" />
<rect x="46" y="14" width="1" height="1" fill="#AAAAAA" />
<rect x="47" y="14" width="1" height="1" fill="#AAAAAA" />
<rect x="48" y="14" width="1" height="1" fill="#000000" />
<rect x="49" y="14" width="1" height="1" fill="#FFFFFF" />
<rect x="50" y="14" width="1" height="1" fill="#AAAAAA" />
<rect x="51" y="14" width="1" height="1" fill="#AAAAAA" />
<rect x="52" y="14" width="1" height="1" fill="#000000" />
<rect x="53" y="14" width="1" height="1" fill="#000000" />
<rect x="54" y="14" width="1" height="1" fill="#000000" />
<rect x="24" y="15" width="1" height="1" fill="#000000" />
<rect x="25" y="15" width="1" height="1" fill="#AAAAAA" />
<rect x="26" y="15" width="1" height="1" fill="#AAAAAA" />
<rect x="27" y="15" width="1" height="1" fill="#AAAAAA" />
<rect x="28" y="15" width="1" height="1" fill="#AAAAAA" />
<rect x="29" y="15" width="1" height="1" fill="#AAAAAA" />
<rect x="30" y="15" width="1" height="1" fill="#AAAAAA" />
<rect x="31" y="15" width="1" height="1" fill="#AAAAAA" />
<rect x="32" y="15" width="1" height="1" fill="#AAAAAA" />
<rect x="33" y="15" width="1" height="1" fill="#AAAAAA" />
<rect x="34" y="15" width="1" height="1" fill="#AAAAAA" />
<rect x="35" y="15" width="1" height="1" fill="#AAAAAA" />
<rect x="36" y="15" width="1" height="1" fill="#AAAAAA" />
<rect x="37" y="15" width="1" height="1" fill="#000000" />
<rect x="38" y="15" width="1" height="1" fill="#000000" />
<rect x="42" y="15" width="1" height="1" fill="#000000" />
<rect x="43" y="15" width="1" height="1" fill="#AAAAAA" />
<rect x="44" y="15" width="1" height="1" fill="#AAAAAA" />
<rect x="45" y="15" width="1" height="1" fill="#AAAAAA" />
<rect x="46" y="15" width="1" height="1" fill="#AAAAAA" />
<rect x="47" y="15" width="1" height="1" fill="#AAAAAA" />
<rect x="48" y="15" width="1" height="1" fill="#000000" />
<rect x="49" y="15" width="1" height="1" fill="#000000" />
<rect x="50" y="15" width="1" height="1" fill="#AAAAAA" />
<rect x="51" y="15" width="1" height="1" fill="#AAAAAA" />
<rect x="52" y="15" width="1" height="1" fill="#AAAAAA" />
<rect x="53" y="15" width="1" height="1" fill="#AAAAAA" />
<rect x="54" y="15" width="1" height="1" fill="#AAAAAA" />
<rect x="55" y="15" width="1" height="1" fill="#000000" />
<rect x="23" y="16" width="1" height="1" fill="#000000" />
<rect x="24" y="16" width="1" height="1" fill="#AAAAAA" />
<rect x="25" y="16" width="1" height="1" fill="#AAAAAA" />
<rect x="26" y="16" width="1" height="1" fill="#AAAAAA" />
<rect x="27" y="16" width="1" height="1" fill="#AAAAAA" />
<rect x="28" y="16" width="1" height="1" fill="#AAAAAA" />
<rect x="29" y="16" width="1" height="1" fill="#AAAAAA" />
<rect x="30" y="16" width="1" height="1" fill="#AAAAAA" />
<rect x="31" y="16" width="1" height="1" fill="#AAAAAA" />
<rect x="32" y="16" width="1" height="1" fill="#AAAAAA" />
<rect x="33" y="16" width="1" height="1" fill="#AAAAAA" />
<rect x="34" y="16" width="1" height="1" fill="#AAAAAA" />
<rect x="35" y="16" width="1" height="1" fill="#AAAAAA" />
<rect x="36" y="16" width="1" height="1" fill="#AAAAAA" />
<rect x="37" y="16" width="1" height="1" fill="#AAAAAA" />
<rect x="38" y="16" width="1" height="1" fill="#AAAAAA" />
<rect x="39" y="16" width="1" height="1" fill="#000000" />
<rect x="40" y="16" width="1" height="1" fill="#000000" />
<rect x="41" y="16" width="1" height="1" fill="#000000" />
<rect x="42" y="16" width="1" height="1" fill="#AAAAAA" />
<rect x="43" y="16" width="1" height="1" fill="#AAAAAA" />
<rect x="44" y="16" width="1" height="1" fill="#AAAAAA" />
<rect x="45" y="16" width="1" height="1" fill="#AAAAAA" />
<rect x="46" y="16" width="1" height="1" fill="#AAAAAA" />
<rect x="47" y="16" width="1" height="1" fill="#AAAAAA" />
<rect x="48" y="16" width="1" height="1" fill="#AAAAAA" />
<rect x="49" y="16" width="1" height="1" fill="#AAAAAA" />
<rect x="50" y="16" width="1" height="1" fill="#AAAAAA" />
<rect x="51" y="16" width="1" height="1" fill="#AAAAAA" />
<rect x="52" y="16" width="1" height="1" fill="#AAAAAA" />
<rect x="53" y="16" width="1" height="1" fill="#AAAAAA" />
<rect x="54" y="16" width="1" height="1" fill="#AAAAAA" />
<rect x="55" y="16" width="1" height="1" fill="#FFAAAA" />
<rect x="56" y="16" width="1" height="1" fill="#000000" />
<rect x="22" y="17" width="1" height="1" fill="#000000" />
<rect x="23" y="17" width="1" height="1" fill="#AAAAAA" />
<rect x="24" y="17" width="1" height="1" fill="#AAAAAA" />
<rect x="25" y="17" width="1" height="1" fill="#AAAAAA" />
<rect x="26" y="17" width="1" height="1" fill="#AAAAAA" />
<rect x="27" y="17" width="1" height="1" fill="#AAAAAA" />
<rect x="28" y="17" width="1" height="1" fill="#AAAAAA" />
<rect x="29" y="17" width="1" height="1" fill="#AAAAAA" />
<rect x="30" y="17" width="1" height="1" fill="#AAAAAA" />
<rect x="31" y="17" width="1" height="1" fill="#AAAAAA" />
<rect x="32" y="17" width="1" height="1" fill="#AAAAAA" />
<rect x="33" y="17" width="1" height="1" fill="#AAAAAA" />
<rect x="34" y="17" width="1" height="1" fill="#AAAAAA" />
<rect x="35" y="17" width="1" height="1" fill="#AAAAAA" />
<rect x="36" y="17" width="1" height="1" fill="#AAAAAA" />
<rect x="37" y="17" width="1" height="1" fill="#AAAAAA" />
<rect x="38" y="17" width="1" height="1" fill="#AAAAAA" />
<rect x="39" y="17" width="1" height="1" fill="#AAAAAA" />
<rect x="40" y="17" width="1" height="1" fill="#AAAAAA" />
<rect x="41" y="17" width="1" height="1" fill="#AAAAAA" />
<rect x="42" y="17" width="1" height="1" fill="#AAAAAA" />
<rect x="43" y="17" width="1" height="1" fill="#AAAAAA" />
<rect x="44" y="17" width="1" height="1" fill="#AAAAAA" />
<rect x="45" y="17" width="1" height="1" fill="#AAAAAA" />
<rect x="46" y="17" width="1" height="1" fill="#AAAAAA" />
<rect x="47" y="17" width="1" height="1" fill="#AAAAAA" />
<rect x="48" y="17" width="1" height="1" fill="#AAAAAA" />
<rect x="49" y="17" width="1" height="1" fill="#AAAAAA" />
<rect x="50" y="17" width="1" height="1" fill="#AAAAAA" />
<rect x="51" y="17" width="1" height="1" fill="#AAAAAA" />
<rect x="52" y="17" width="1" height="1" fill="#AAAAAA" />
<rect x="53" y="17" width="1" height="1" fill="#AAAAAA" />
<rect x="54" y="17" width="1" height="1" fill="#AAAAAA" />
<rect x="55" y="17" width="1" height="1" fill="#000000" />
<rect x="21" y="18" width="1" height="1" fill="#000000" />
<rect x="22" y="18" width="1" height="1" fill="#AAAAAA" />
<rect x="23" y="18" width="1" height="1" fill="#AAAAAA" />
<rect x="24" y="18" width="1" height="1" fill="#AAAAAA" />
<rect x="25" y="18" width="1" height="1" fill="#AAAAAA" />
<rect x="26" y="18" width="1" height="1" fill="#AAAAAA" />
<rect x="27" y="18" width="1" height="1" fill="#AAAAAA" />
<rect x="28" y="18" width="1" height="1" fill="#AAAAAA" />
<rect x="29" y="18" width="1" height="1" fill="#AAAAAA" />
<rect x="30" y="18" width="1" height="1" fill="#AAAAAA" />
<rect x="31" y="18" width="1" height="1" fill="#AAAAAA" />
<rect x="32" y="18" width="1" height="1" fill="#AAAAAA" />
<rect x="33" y="18" width="1" height="1" fill="#AAAAAA" />
<rect x="34" y="18" width="1" height="1" fill="#AAAAAA" />
<rect x="35" y="18" width="1" height="1" fill="#AAAAAA" />
<rect x="36" y="18" width="1" height="1" fill="#AAAAAA" />
<rect x="37" y="18" width="1" height="1" fill="#AAAAAA" />
<rect x="38" y="18" width="1" height="1" fill="#AAAAAA" />
<rect x="39" y="18" width="1" height="1" fill="#AAAAAA" />
<rect x="40" y="18" width="1" height="1" fill="#AAAAAA" />
<rect x="41" y="18" width="1" height="1" fill="#AAAAAA" />
<rect x="42" y="18" width="1" height="1" fill="#AAAAAA" />
<rect x="43" y="18" width="1" height="1" fill="#AAAAAA" />
<rect x="44" y="18" width="1" height="1" fill="#AAAAAA" />
<rect x="45" y="18" width="1" height="1" fill="#AAAAAA" />
<rect x="46" y="18" width="1" height="1" fill="#AAAAAA" />
<rect x="47" y="18" width="1" height="1" fill="#AAAAAA" />
<rect x="48" y="18" width="1" height="1" fill="#AAAAAA" />
<rect x="49" y="18" width="1" height="1" fill="#AAAAAA" />
<rect x="50" y="18" width="1" height="1" fill="#AAAAAA" />
<rect x="51" y="18" width="1" height="1" fill="#AAAAAA" />
<rect x="52" y="18" width="1" height="1" fill="#000000" />
<rect x="53" y="18" width="1" height="1" fill="#000000" />
<rect x="54" y="18" width="1" height="1" fill="#000000" />
<rect x="20" y="19" width="1" height="1" fill="#000000" />
<rect x="21" y="19" width="1" height="1" fill="#AAAAAA" />
<rect x="22" y="19" width="1" height="1" fill="#AAAAAA" />
<rect x="23" y="19" width="1" height="1" fill="#AAAAAA" />
<rect x="24" y="19" width="1" height="1" fill="#AAAAAA" />
<rect x="25" y="19" width="1" height="1" fill="#AAAAAA" />
<rect x="26" y="19" width="1" height="1" fill="#AAAAAA" />
<rect x="27" y="19" width="1" height="1" fill="#AAAAAA" />
<rect x="28" y="19" width="1" height="1" fill="#AAAAAA" />
<rect x="29" y="19" width="1" height="1" fill="#AAAAAA" />
<rect x="30" y="19" width="1" height="1" fill="#AAAAAA" />
<rect x="31" y="19" width="1" height="1" fill="#AAAAAA" />
<rect x="32" y="19" width="1" height="1" fill="#AAAAAA" />
<rect x="33" y="19" width="1" height="1" fill="#AAAAAA" />
<rect x="34" y="19" width="1" height="1" fill="#AAAAAA" />
<rect x="35" y="19" width="1" height="1" fill="#AAAAAA" />
<rect x="36" y="19" width="1" height="1" fill="#AAAAAA" />
<rect x="37" y="19" width="1" height="1" fill="#AAAAAA" />
<rect x="38" y="19" width="1" height="1" fill="#AAAAAA" />
<rect x="39" y="19" width="1" height="1" fill="#AAAAAA" />
<rect x="40" y="19" width="1" height="1" fill="#AAAAAA" />
<rect x="41" y="19" width="1" height="1" fill="#AAAAAA" />
<rect x="42" y="19" width="1" height="1" fill="#AAAAAA" />
<rect x="43" y="19" width="1" height="1" fill="#AAAAAA" />
<rect x="44" y="19" width="1" height="1" fill="#AAAAAA" />
<rect x="45" y="19" width="1" height="1" fill="#AAAAAA" />
<rect x="46" y="19" width="1" height="1" fill="#AAAAAA" />
<rect x="47" y="19" width="1" height="1" fill="#AAAAAA" />
<rect x="48" y="19" width="1" height="1" fill="#000000" />
<rect x="49" y="19" width="1" height="1" fill="#000000" />
<rect x="50" y="19" width="1" height="1" fill="#000000" />
<rect x="51" y="19" width="1" height="1" fill="#000000" />
<rect x="19" y="20" width="1" height="1" fill="#000000" />
<rect x="20" y="20" width="1" height="1" fill="#AAAAAA" />
<rect x="21" y="20" width="1" height="1" fill="#AAAAAA" />
<rect x="22" y="20" width="1" height="1" fill="#AAAAAA" />
<rect x="23" y="20" width="1" height="1" fill="#AAAAAA" />
<rect x="24" y="20" width="1" height="1" fill="#AAAAAA" />
<rect x="25" y="20" width="1" height="1" fill="#AAAAAA" />
<rect x="26" y="20" width="1" height="1" fill="#AAAAAA" />
<rect x="27" y="20" width="1" height="1" fill="#AAAAAA" />
<rect x="28" y="20" width="1" height="1" fill="#AAAAAA" />
<rect x="29" y="20" width="1" height="1" fill="#AAAAAA" />
<rect x="30" y="20" width="1" height="1" fill="#AAAAAA" />
<rect x="31" y="20" width="1" height="1" fill="#AAAAAA" />
<rect x="32" y="20" width="1" height="1" fill="#AAAAAA" />
<rect x="33" y="20" width="1" height="1" fill="#AAAAAA" />
<rect x="34" y="20" width="1" height="1" fill="#AAAAAA" />
<rect x="35" y="20" width="1" height="1" fill="#AAAAAA" />
<rect x="36" y="20" width="1" height="1" fill="#AAAAAA" />
<rect x="37" y="20" width="1" height="1" fill="#AAAAAA" />
<rect x="38" y="20" width="1" height="1" fill="#AAAAAA" />
<rect x="39" y="20" width="1" height="1" fill="#AAAAAA" />
<rect x="40" y="20" width="1" height="1" fill="#AAAAAA" />
<rect x="41" y="20" width="1" height="1" fill="#AAAAAA" />
<rect x="42" y="20" width="1" height="1" fill="#AAAAAA" />
<rect x="43" y="20" width="1" height="1" fill="#AAAAAA" />
<rect x="44" y="20" width="1" height="1" fill="#AAAAAA" />
<rect x="45" y="20" width="1" height="1" fill="#AAAAAA" />
<rect x="46" y="20" width="1" height="1" fill="#AAAAAA" />
<rect x="47" y="20" width="1" height="1" fill="#000000" />
<rect x="19" y="21" width="1" height="1" fill="#000000" />
<rect x="20" y="21" width="1" height="1" fill="#FFAAAA" />
<rect x="21" y="21" width="1" height="1" fill="#AAAAAA" />
<rect x="22" y="21" width="1" height="1" fill="#AAAAAA" />
<rect x="23" y="21" width="1" height="1" fill="#AAAAAA" />
<rect x="24" y="21" width="1" height="1" fill="#AAAAAA" />
<rect x="25" y="21" width="1" height="1" fill="#AAAAAA" />
<rect x="26" y="21" width="1" height="1" fill="#AAAAAA" />
<rect x="27" y="21" width="1" height="1" fill="#AAAAAA" />
<rect x="28" y="21" width="1" height="1" fill="#AAAAAA" />
<rect x="29" y="21" width="1" height="1" fill="#AAAAAA" />
<rect x="30" y="21" width="1" height="1" fill="#AAAAAA" />
<rect x="31" y="21" width="1" height="1" fill="#AAAAAA" />
<rect x="32" y="21" width="1" height="1" fill="#AAAAAA" />
<rect x="33" y="21" width="1" height="1" fill="#AAAAAA" />
<rect x="34" y="21" width="1" height="1" fill="#AAAAAA" />
<rect x="35" y="21" width="1" height="1" fill="#AAAAAA" />
<rect x="36" y="21" width="1" height="1" fill="#AAAAAA" />
<rect x="37" y="21" width="1" height="1" fill="#AAAAAA" />
<rect x="38" y="21" width="1" height="1" fill="#AAAAAA" />
<rect x="39" y="21" width="1" height="1" fill="#AAAAAA" />
<rect x="40" y="21" width="1" height="1" fill="#AAAAAA" />
<rect x="41" y="21" width="1" height="1" fill="#AAAAAA" />
<rect x="42" y="21" width="1" height="1" fill="#AAAAAA" />
<rect x="43" y="21" width="1" height="1" fill="#AAAAAA" />
<rect x="44" y="21" width="1" height="1" fill="#AAAAAA" />
<rect x="45" y="21" width="1" height="1" fill="#AAAAAA" />
<rect x="46" y="21" width="1" height="1" fill="#000000" />
<rect x="18" y="22" width="1" height="1" fill="#000000" />
<rect x="19" y="22" width="1" height="1" fill="#FFAAAA" />
<rect x="20" y="22" width="1" height="1" fill="#FFAAAA" />
<rect x="21" y="22" width="1" height="1" fill="#FFAAAA" />
<rect x="22" y="22" width="1" height="1" fill="#AAAAAA" />
<rect x="23" y="22" width="1" height="1" fill="#AAAAAA" />
<rect x="24" y="22" width="1" height="1" fill="#AAAAAA" />
<rect x="25" y="22" width="1" height="1" fill="#AAAAAA" />
<rect x="26" y="22" width="1" height="1" fill="#AAAAAA" />
<rect x="27" y="22" width="1" height="1" fill="#AAAAAA" />
<rect x="28" y="22" width="1" height="1" fill="#AAAAAA" />
<rect x="29" y="22" width="1" height="1" fill="#AAAAAA" />
<rect x="30" y="22" width="1" height="1" fill="#AAAAAA" />
<rect x="31" y="22" width="1" height="1" fill="#AAAAAA" />
<rect x="32" y="22" width="1" height="1" fill="#AAAAAA" />
<rect x="33" y="22" width="1" height="1" fill="#AAAAAA" />
<rect x="34" y="22" width="1" height="1" fill="#AAAAAA" />
<rect x="35" y="22" width="1" height="1" fill="#AAAAAA" />
<rect x="36" y="22" width="1" height="1" fill="#AAAAAA" />
<rect x="37" y="22" width="1" height="1" fill="#AAAAAA" />
<rect x="38" y="22" width="1" height="1" fill="#AAAAAA" />
<rect x="39" y="22" width="1" height="1" fill="#AAAAAA" />
<rect x="40" y="22" width="1" height="1" fill="#AAAAAA" />
<rect x="41" y="22" width="1" height="1" fill="#AAAAAA" />
<rect x="42" y="22" width="1" height="1" fill="#AAAAAA" />
<rect x="43" y="22" width="1" height="1" fill="#AAAAAA" />
<rect x="44" y="22" width="1" height="1" fill="#AAAAAA" />
<rect x="45" y="22" width="1" height="1" fill="#000000" />
<rect x="18" y="23" width="1" height="1" fill="#000000" />
<rect x="19" y="23" width="1" height="1" fill="#FFAAAA" />
<rect x="20" y="23" width="1" height="1" fill="#FFAAAA" />
<rect x="21" y="23" width="1" height="1" fill="#AAAAAA" />
<rect x="22" y="23" width="1" height="1" fill="#AAAAAA" />
<rect x="23" y="23" width="1" height="1" fill="#AAAAAA" />
<rect x="24" y="23" width="1" height="1" fill="#AAAAAA" />
<rect x="25" y="23" width="1" height="1" fill="#AAAAAA" />
<rect x="26" y="23" width="1" height="1" fill="#AAAAAA" />
<rect x="27" y="23" width="1" height="1" fill="#AAAAAA" />
<rect x="28" y="23" width="1" height="1" fill="#AAAAAA" />
<rect x="29" y="23" width="1" height="1" fill="#AAAAAA" />
<rect x="30" y="23" width="1" height="1" fill="#AAAAAA" />
<rect x="31" y="23" width="1" height="1" fill="#AAAAAA" />
<rect x="32" y="23" width="1" height="1" fill="#AAAAAA" />
<rect x="33" y="23" width="1" height="1" fill="#AAAAAA" />
<rect x="34" y="23" width="1" height="1" fill="#AAAAAA" />
<rect x="35" y="23" width="1" height="1" fill="#AAAAAA" />
<rect x="36" y="23" width="1" height="1" fill="#AAAAAA" />
<rect x="37" y="23" width="1" height="1" fill="#AAAAAA" />
<rect x="38" y="23" width="1" height="1" fill="#AAAAAA" />
<rect x="39" y="23" width="1" height="1" fill="#AAAAAA" />
<rect x="40" y="23" width="1" height="1" fill="#AAAAAA" />
<rect x="41" y="23" width="1" height="1" fill="#AAAAAA" />
<rect x="42" y="23" width="1" height="1" fill="#AAAAAA" />
<rect x="43" y="23" width="1" height="1" fill="#AAAAAA" />
<rect x="44" y="23" width="1" height="1" fill="#000000" />
<rect x="17" y="24" width="1" height="1" fill="#000000" />
<rect x="18" y="24" width="1" height="1" fill="#FFAAAA" />
<rect x="19" y="24" width="1" height="1" fill="#FFAAAA" />
<rect x="20" y="24" width="1" height="1" fill="#FFAAAA" />
<rect x="21" y="24" width="1" height="1" fill="#AAAAAA" />
<rect x="22" y="24" width="1" height="1" fill="#AAAAAA" />
<rect x="23" y="24" width="1" height="1" fill="#AAAAAA" />
<rect x="24" y="24" width="1" height="1" fill="#AAAAAA" />
<rect x="25" y="24" width="1" height="1" fill="#AAAAAA" />
<rect x="26" y="24" width="1" height="1" fill="#AAAAAA" />
<rect x="27" y="24" width="1" height="1" fill="#AAAAAA" />
<rect x="28" y="24" width="1" height="1" fill="#AAAAAA" />
<rect x="29" y="24" width="1" height="1" fill="#AAAAAA" />
<rect x="30" y="24" width="1" height="1" fill="#AAAAAA" />
<rect x="31" y="24" width="1" height="1" fill="#AAAAAA" />
<rect x="32" y="24" width="1" height="1" fill="#AAAAAA" />
<rect x="33" y="24" width="1" height="1" fill="#AAAAAA" />
<rect x="34" y="24" width="1" height="1" fill="#AAAAAA" />
<rect x="35" y="24" width="1" height="1" fill="#AAAAAA" />
<rect x="36" y="24" width="1" height="1" fill="#AAAAAA" />
<rect x="37" y="24" width="1" height="1" fill="#AAAAAA" />
<rect x="38" y="24" width="1" height="1" fill="#AAAAAA" />
<rect x="39" y="24" width="1" height="1" fill="#AAAAAA" />
<rect x="40" y="24" width="1" height="1" fill="#AAAAAA" />
<rect x="41" y="24" width="1" height="1" fill="#AAAAAA" />
<rect x="42" y="24" width="1" height="1" fill="#AAAAAA" />
<rect x="43" y="24" width="1" height="1" fill="#000000" />
<rect x="17" y="25" width="1" height="1" fill="#000000" />
<rect x="18" y="25" width="1" height="1" fill="#FFAAAA" />
<rect x="19" y="25" width="1" height="1" fill="#FFAAAA" />
<rect x="20" y="25" width="1" height="1" fill="#000000" />
<rect x="21" y="25" width="1" height="1" fill="#AAAAAA" />
<rect x="22" y="25" width="1" height="1" fill="#AAAAAA" />
<rect x="23" y="25" width="1" height="1" fill="#AAAAAA" />
<rect x="24" y="25" width="1" height="1" fill="#AAAAAA" />
<rect x="25" y="25" width="1" height="1" fill="#AAAAAA" />
<rect x="26" y="25" width="1" height="1" fill="#AAAAAA" />
<rect x="27" y="25" width="1" height="1" fill="#AAAAAA" />
<rect x="28" y="25" width="1" height="1" fill="#AAAAAA" />
<rect x="29" y="25" width="1" height="1" fill="#AAAAAA" />
<rect x="30" y="25" width="1" height="1" fill="#AAAAAA" />
<rect x="31" y="25" width="1" height="1" fill="#AAAAAA" />
<rect x="32" y="25" width="1" height="1" fill="#AAAAAA" />
<rect x="33" y="25" width="1" height="1" fill="#AAAAAA" />
<rect x="34" y="25" width="1" height="1" fill="#AAAAAA" />
<rect x="35" y="25" width="1" height="1" fill="#AAAAAA" />
<rect x="36" y="25" width="1" height="1" fill="#AAAAAA" />
<rect x="37" y="25" width="1" height="1" fill="#000000" />
<rect x="38" y="25" width="1" height="1" fill="#000000" />
<rect x="39" y="25" width="1" height="1" fill="#000000" />
<rect x="40" y="25" width="1" height="1" fill="#AAAAAA" />
<rect x="41" y="25" width="1" height="1" fill="#AAAAAA" />
<rect x="42" y="25" width="1" height="1" fill="#AAAAAA" />
<rect x="43" y="25" width="1" height="1" fill="#000000" />
<rect x="4" y="26" width="1" height="1" fill="#000000" />
<rect x="5" y="26" width="1" height="1" fill="#000000" />
<rect x="6" y="26" width="1" height="1" fill="#000000" />
<rect x="7" y="26" width="1" height="1" fill="#000000" />
<rect x="16" y="26" width="1" height="1" fill="#000000" />
<rect x="17" y="26" width="1" height="1" fill="#FFAAAA" />
<rect x="18" y="26" width="1" height="1" fill="#FFAAAA" />
<rect x="19" y="26" width="1" height="1" fill="#000000" />
<rect x="21" y="26" width="1" height="1" fill="#000000" />
<rect x="22" y="26" width="1" height="1" fill="#AAAAAA" />
<rect x="23" y="26" width="1" height="1" fill="#AAAAAA" />
<rect x="24" y="26" width="1" height="1" fill="#AAAAAA" />
<rect x="25" y="26" width="1" height="1" fill="#AAAAAA" />
<rect x="26" y="26" width="1" height="1" fill="#AAAAAA" />
<rect x="27" y="26" width="1" height="1" fill="#000000" />
<rect x="28" y="26" width="1" height="1" fill="#000000" />
<rect x="29" y="26" width="1" height="1" fill="#000000" />
<rect x="30" y="26" width="1" height="1" fill="#000000" />
<rect x="31" y="26" width="1" height="1" fill="#000000" />
<rect x="32" y="26" width="1" height="1" fill="#000000" />
<rect x="33" y="26" width="1" height="1" fill="#000000" />
<rect x="34" y="26" width="1" height="1" fill="#000000" />
<rect x="35" y="26" width="1" height="1" fill="#000000" />
<rect x="36" y="26" width="1" height="1" fill="#000000" />
<rect x="40" y="26" width="1" height="1" fill="#000000" />
<rect x="41" y="26" width="1" height="1" fill="#AAAAAA" />
<rect x="42" y="26" width="1" height="1" fill="#AAAAAA" />
<rect x="43" y="26" width="1" height="1" fill="#000000" />
<rect x="3" y="27" width="1" height="1" fill="#000000" />
<rect x="4" y="27" width="1" height="1" fill="#FFAAAA" />
<rect x="5" y="27" width="1" height="1" fill="#FFAAAA" />
<rect x="6" y="27" width="1" height="1" fill="#FFAAAA" />
<rect x="7" y="27" width="1" height="1" fill="#FFAAAA" />
<rect x="8" y="27" width="1" height="1" fill="#000000" />
<rect x="15" y="27" width="1" height="1" fill="#000000" />
<rect x="16" y="27" width="1" height="1" fill="#FFAAAA" />
<rect x="17" y="27" width="1" height="1" fill="#FFAAAA" />
<rect x="18" y="27" width="1" height="1" fill="#000000" />
<rect x="22" y="27" width="1" height="1" fill="#000000" />
<rect x="23" y="27" width="1" height="1" fill="#AAAAAA" />
<rect x="24" y="27" width="1" height="1" fill="#AAAAAA" />
<rect x="25" y="27" width="1" height="1" fill="#AAAAAA" />
<rect x="26" y="27" width="1" height="1" fill="#000000" />
<rect x="40" y="27" width="1" height="1" fill="#000000" />
<rect x="41" y="27" width="1" height="1" fill="#AAAAAA" />
<rect x="42" y="27" width="1" height="1" fill="#AAAAAA" />
<rect x="43" y="27" width="1" height="1" fill="#000000" />
<rect x="4" y="28" width="1" height="1" fill="#000000" />
<rect x="5" y="28" width="1" height="1" fill="#000000" />
<rect x="6" y="28" width="1" height="1" fill="#000000" />
<rect x="7" y="28" width="1" height="1" fill="#FFAAAA" />
<rect x="8" y="28" width="1" height="1" fill="#FFAAAA" />
<rect x="9" y="28" width="1" height="1" fill="#000000" />
<rect x="14" y="28" width="1" height="1" fill="#000000" />
<rect x="15" y="28" width="1" height="1" fill="#FFAAAA" />
<rect x="16" y="28" width="1" height="1" fill="#FFAAAA" />
<rect x="17" y="28" width="1" height="1" fill="#000000" />
<rect x="23" y="28" width="1" height="1" fill="#000000" />
<rect x="24" y="28" width="1" height="1" fill="#AAAAAA" />
<rect x="25" y="28" width="1" height="1" fill="#AAAAAA" />
<rect x="26" y="28" width="1" height="1" fill="#AAAAAA" />
<rect x="27" y="28" width="1" height="1" fill="#000000" />
<rect x="40" y="28" width="1" height="1" fill="#000000" />
<rect x="41" y="28" width="1" height="1" fill="#AAAAAA" />
<rect x="42" y="28" width="1" height="1" fill="#AAAAAA" />
<rect x="43" y="28" width="1" height="1" fill="#000000" />
<rect x="7" y="29" width="1" height="1" fill="#000000" />
<rect x="8" y="29" width="1" height="1" fill="#FFAAAA" />
<rect x="9" y="29" width="1" height="1" fill="#FFAAAA" />
<rect x="10" y="29" width="1" height="1" fill="#000000" />
<rect x="11" y="29" width="1" height="1" fill="#000000" />
<rect x="12" y="29" width="1" height="1" fill="#000000" />
<rect x="13" y="29" width="1" height="1" fill="#000000" />
<rect x="14" y="29" width="1" height="1" fill="#FFAAAA" />
<rect x="15" y="29" width="1" height="1" fill="#FFAAAA" />
<rect x="16" y="29" width="1" height="1" fill="#000000" />
<rect x="23" y="29" width="1" height="1" fill="#000000" />
<rect x="24" y="29" width="1" height="1" fill="#FFAAAA" />
<rect x="25" y="29" width="1" height="1" fill="#FFAAAA" />
<rect x="26" y="29" width="1" height="1" fill="#FFAAAA" />
<rect x="27" y="29" width="1" height="1" fill="#FFAAAA" />
<rect x="28" y="29" width="1" height="1" fill="#000000" />
<rect x="29" y="29" width="1" height="1" fill="#000000" />
<rect x="40" y="29" width="1" height="1" fill="#000000" />
<rect x="41" y="29" width="1" height="1" fill="#FFAAAA" />
<rect x="42" y="29" width="1" height="1" fill="#FFAAAA" />
<rect x="43" y="29" width="1" height="1" fill="#000000" />
<rect x="44" y="29" width="1" height="1" fill="#000000" />
<rect x="8" y="30" width="1" height="1" fill="#000000" />
<rect x="9" y="30" width="1" height="1" fill="#FFAAAA" />
<rect x="10" y="30" width="1" height="1" fill="#FFAAAA" />
<rect x="11" y="30" width="1" height="1" fill="#FFAAAA" />
<rect x="12" y="30" width="1" height="1" fill="#FFAAAA" />
<rect x="13" y="30" width="1" height="1" fill="#FFAAAA" />
<rect x="14" y="30" width="1" height="1" fill="#FFAAAA" />
<rect x="15" y="30" width="1" height="1" fill="#000000" />
<rect x="23" y="30" width="1" height="1" fill="#000000" />
<rect x="24" y="30" width="1" height="1" fill="#FFAAAA" />
<rect x="25" y="30" width="1" height="1" fill="#FFAAAA" />
<rect x="26" y="30" width="1" height="1" fill="#FFAAAA" />
<rect x="27" y="30" width="1" height="1" fill="#FFAAAA" />
<rect x="28" y="30" width="1" height="1" fill="#FFAAAA" />
<rect x="29" y="30" width="1" height="1" fill="#FFAAAA" />
<rect x="30" y="30" width="1" height="1" fill="#000000" />
<rect x="41" y="30" width="1" height="1" fill="#000000" />
<rect x="42" y="30" width="1" height="1" fill="#FFAAAA" />
<rect x="43" y="30" width="1" height="1" fill="#FFAAAA" />
<rect x="44" y="30" width="1" height="1" fill="#FFAAAA" />
<rect x="45" y="30" width="1" height="1" fill="#000000" />
<rect x="9" y="31" width="1" height="1" fill="#000000" />
<rect x="10" y="31" width="1" height="1" fill="#000000" />
<rect x="11" y="31" width="1" height="1" fill="#000000" />
<rect x="12" y="31" width="1" height="1" fill="#000000" />
<rect x="13" y="31" width="1" height="1" fill="#000000" />
<rect x="14" y="31" width="1" height="1" fill="#000000" />
<rect x="24" y="31" width="1" height="1" fill="#000000" />
<rect x="25" y="31" width="1" height="1" fill="#000000" />
<rect x="26" y="31" width="1" height="1" fill="#000000" />
<rect x="27" y="31" width="1" height="1" fill="#000000" />
<rect x="28" y="31" width="1" height="1" fill="#000000" />
<rect x="29" y="31" width="1" height="1" fill="#000000" />
<rect x="42" y="31" width="1" height="1" fill="#000000" />
<rect x="43" y="31" width="1" height="1" fill="#000000" />
<rect x="44" y="31" width="1" height="1" fill="#000000" />
</svg>