<?xml version="1.0" encoding="utf-8"?>
<!-- Generator: Adobe Illustrator 25.3.1, SVG Export Plug-In . SVG Version: 6.00 Build 0)  -->
<svg version="1.1" xmlns="http://www.w3.org/2000/svg" xmlns:xlink="http://www.w3.org/1999/xlink" x="0px" y="0px"
	 viewBox="0 0 800 600" style="enable-background:new 0 0 800 600;" xml:space="preserve">
<style type="text/css">
	.st0{fill:#FFDCD4;stroke:#000000;stroke-width:2;stroke-miterlimit:10;}
	.st1{fill:none;stroke:#000000;stroke-width:2;stroke-miterlimit:10;}
	.st2{fill:#FFFFFF;}
	.st3{fill:#9E815C;stroke:#000000;stroke-width:2;stroke-miterlimit:10;}
	.st4{fill:#60554A;}
</style>
<g id="Tail">
	<path class="st0" d="M300.59,348.42c0,0,24.09-8.42-34.51,9.71c-58.61,18.13-120.25,17.2-120.25-29.67
		c0-43.67,36.2-91.33,100.02-91.33c45.43,0,61.64,37.75,84.75,37.75c23.02,0,55.04-39.15,55.04-39.15s1.19-4.65-2.99-7.41
		s-6.49,1.66-9.52,4.98c-3.03,3.31-31.01,26.22-43.57,25.3C317,257.67,293.98,219,247.94,219c-53.6,0-133.93,43.14-133.93,106.54
		c0,78.45,52.79,104.37,141.28,100.54c88.49-3.82,81.59-13.73,81.59-13.73L300.59,348.42z"/>
	<path class="st1" d="M228.57,367.77c-8.56-0.89-16.42,1.1-16.42,29.08c0,23.84,7.65,30.56,16.18,29.02"/>
	<path class="st1" d="M190.35,368.97c-7.16-1.64-14.04-0.66-16.93,24.02c-2.46,21.02,3.33,27.7,10.72,27.2"/>
	<path class="st1" d="M161.93,359.93c-6.08-4.1-12.66-6.08-22.48,11.71c-8.36,15.15-5.4,20.83,0.43,25.32"/>
	<path class="st1" d="M158.79,283.34c1.98-2.9,2.67-6.16-8.57-12.06c-9.57-5.03-13.72-3.68-14.72-0.28"/>
	<path class="st1" d="M194.94,248.74c1.85-1.2,3.04-2.94-2.11-9.14c-4.39-5.28-7.14-5.52-8.53-3.78"/>
	<path class="st1" d="M238.65,236.57c2.21-0.01,4.14-0.82,3.18-8.82c-0.82-6.82-3-8.51-5.12-7.81"/>
	<path class="st1" d="M281.17,245.87c1.96,1.02,4.05,1.2,6.91-6.34c2.44-6.42,1.29-8.93-0.91-9.29"/>
	<path class="st1" d="M330.94,274.38c2.2-0.16,4.08-1.11,2.54-9.03c-1.31-6.74-3.6-8.27-5.66-7.42"/>
	<path class="st1" d="M146.17,324.55c0.58-3.47-0.45-6.7-15.93-7.07c-13.18-0.31-16.97,2.72-16.2,6.21"/>
</g>
<g id="Layer_1">
	<path class="st1" d="M261.78,359.39c-9.63-0.35-18.26,2.48-16.12,33.93c1.82,26.79,10.88,33.76,20.29,31.38"/>
	<g>
		<g>
			<g>
				<path class="st2" d="M420.75,444.3c-1.16,0-1.67-0.04-1.9-0.07c-0.58-0.08-0.82-0.32-0.94-0.5c-0.33-0.46-0.35-1.2-0.31-1.62
					c2.27-2.33,4.98-4.88,5.84-5.39c1.23,0.29,6.54,1.62,9.97,4.1c1.64,1.18,2.74,2.13,3.46,2.82
					C433.03,443.86,424.78,444.3,420.75,444.3z"/>
				<path d="M423.64,437.8c1.69,0.42,6.21,1.68,9.18,3.83c0.57,0.41,1.08,0.8,1.52,1.15c-4.2,0.23-10.3,0.52-13.58,0.52
					c-1.21,0-1.64-0.04-1.77-0.06c-0.04-0.01-0.22-0.03-0.26-0.09c-0.08-0.11-0.13-0.36-0.14-0.62
					C420.47,440.61,422.65,438.55,423.64,437.8 M423.37,435.69c-0.94,0-6.72,5.97-6.72,5.97s-0.63,3.2,2.07,3.57
					c0.4,0.05,1.11,0.08,2.04,0.08c5.42,0,18.21-0.78,18.21-0.78s-0.87-1.54-4.97-4.51c-4.11-2.97-10.61-4.32-10.61-4.32
					C423.37,435.69,423.37,435.69,423.37,435.69L423.37,435.69z"/>
			</g>
			<g>
				<path class="st2" d="M420.99,449.04c-1.16,0-1.68-0.04-1.91-0.07c-0.58-0.08-0.82-0.32-0.94-0.49
					c-0.33-0.46-0.35-1.18-0.32-1.62c2.27-2.32,4.98-4.88,5.84-5.39c1.23,0.29,6.54,1.62,9.97,4.1c1.64,1.18,2.74,2.13,3.46,2.82
					C433.26,448.6,425.02,449.04,420.99,449.04z"/>
				<path d="M423.87,442.54c1.69,0.42,6.21,1.68,9.18,3.83c0.57,0.41,1.08,0.8,1.52,1.15c-4.2,0.23-10.3,0.52-13.58,0.52
					c-1.21,0-1.64-0.04-1.77-0.06c-0.04-0.01-0.22-0.03-0.26-0.09c-0.08-0.11-0.13-0.36-0.14-0.62
					C420.7,445.35,422.88,443.29,423.87,442.54 M423.6,440.43c-0.94,0-6.72,5.97-6.72,5.97s-0.63,3.2,2.07,3.57
					c0.4,0.05,1.11,0.08,2.04,0.08c5.42,0,18.21-0.78,18.21-0.78s-0.87-1.54-4.97-4.51c-4.11-2.97-10.61-4.32-10.61-4.32
					C423.61,440.43,423.6,440.43,423.6,440.43L423.6,440.43z"/>
			</g>
			<g>
				<path class="st2" d="M423.67,455.24c-1.16,0-1.68-0.04-1.9-0.07c-0.58-0.08-0.82-0.32-0.94-0.5c-0.33-0.46-0.35-1.18-0.32-1.62
					c2.27-2.32,4.98-4.88,5.84-5.39c1.23,0.29,6.54,1.62,9.97,4.1c1.64,1.18,2.74,2.13,3.46,2.82
					C435.94,454.8,427.7,455.24,423.67,455.24z"/>
				<path d="M426.55,448.75c1.69,0.42,6.2,1.67,9.18,3.83c0.57,0.41,1.08,0.8,1.52,1.15c-4.2,0.23-10.3,0.52-13.58,0.52
					c-1.21,0-1.64-0.04-1.77-0.06c-0.04-0.01-0.22-0.03-0.26-0.09c-0.08-0.11-0.13-0.36-0.14-0.62
					C423.39,451.56,425.57,449.49,426.55,448.75 M426.28,446.63c-0.94,0-6.72,5.97-6.72,5.97s-0.63,3.2,2.07,3.57
					c0.4,0.05,1.11,0.08,2.04,0.08c5.42,0,18.21-0.78,18.21-0.78s-0.87-1.54-4.97-4.51c-4.11-2.97-10.61-4.32-10.61-4.32
					C426.29,446.63,426.28,446.63,426.28,446.63L426.28,446.63z"/>
			</g>
			<path class="st0" d="M345.3,428.92c0,0,4.02,0.35,6.57,1.64c2.54,1.29,58.6,2.3,60.95,2.02s10.31-0.43,14.01,3.91
				c3.7,4.34-4.98,11.74-4.98,11.74l-17.88,3.72l-40.82,0.52l-29.67-15.75l3.69-9.2L345.3,428.92z"/>
			<path class="st0" d="M403.05,437.94c0,0,20.49-2.16,25.22,3.97c2.4,3.12-1.01,4.9-1.01,4.9l-3.55,3.61"/>
			<path class="st0" d="M395.5,443.34c3.91-1.56,26.15-1.81,31,1.69s-1.32,9.48-2.07,10.96c-0.75,1.47-11.07,0.31-12.67-0.38
				c-1.6-0.68-50.91-2.58-57.24-2.4c-6.33,0.18-14.89-5.35-19.41-8.8c-4.9-3.74-8.33-16.5-5.39-25.88
				c0.75-2.4,19.23,21.99,21.57,19.41"/>
		</g>
		<path class="st3" d="M363.15,422.84c-7.17-8.2,0.61-13.81,6.47-20.49c3.71-4.22,15.11-21.78,25.75-38.57
			c-6.31,0.39-12.63,3.25-18.97,5.7c-4.13,1.59-8.27,2.93-12.6,3.9c-0.98,0.22-2,0.41-3.05,0.59
			c-7.64,13.07-17.98,28.93-26.74,35.94c-4.36,3.49-7.66,11.93,1.08,22.65s8.04,6.99,16.18,9.71c6.47,2.16,13.98,3.86,16.18,1.08
			c2.03-2.57,7.9-12.23,6.47-12.94C371.77,429.31,370.7,431.47,363.15,422.84z"/>
	</g>
	<g>
		<g>
			<path class="st2" d="M499.71,451.33c-1.4,0-2.02-0.04-2.3-0.08c-0.58-0.08-0.99-0.3-1.26-0.68c-0.44-0.62-0.46-1.59-0.4-2.13
				c2.79-2.87,6.15-6.03,7.13-6.56c1.33,0.31,7.85,1.91,12.05,4.94c2.22,1.6,3.61,2.84,4.46,3.69
				C515.03,450.77,504.69,451.33,499.71,451.33z"/>
			<path d="M503.07,442.96c1.88,0.46,7.55,1.99,11.27,4.68c1.05,0.76,1.91,1.43,2.61,2.01c-5.01,0.27-13.04,0.68-17.23,0.68
				c-1.41,0-1.96-0.05-2.16-0.07c-0.43-0.06-0.53-0.2-0.58-0.26c-0.18-0.25-0.25-0.71-0.24-1.12
				C499.12,446.44,501.92,443.79,503.07,442.96 M502.83,440.86c-1.12,0-8.02,7.13-8.02,7.13s-0.76,3.82,2.47,4.26
				c0.47,0.06,1.32,0.09,2.43,0.09c6.47,0,21.74-0.93,21.74-0.93s-1.04-1.84-5.94-5.38c-4.9-3.54-12.67-5.16-12.67-5.16
				C502.83,440.86,502.83,440.86,502.83,440.86L502.83,440.86z"/>
		</g>
		<g>
			<path class="st2" d="M499.99,457c-1.4,0-2.02-0.04-2.3-0.08c-0.58-0.08-0.99-0.3-1.26-0.68c-0.44-0.62-0.46-1.59-0.4-2.13
				c2.79-2.87,6.15-6.03,7.13-6.56c1.33,0.3,7.85,1.91,12.05,4.94c2.22,1.6,3.61,2.84,4.46,3.69
				C515.31,456.43,504.97,457,499.99,457z"/>
			<path d="M503.34,448.62c1.89,0.46,7.56,2,11.27,4.68c1.05,0.76,1.91,1.43,2.61,2.01c-5.01,0.27-13.04,0.68-17.23,0.68
				c-1.41,0-1.96-0.05-2.16-0.07c-0.43-0.06-0.53-0.2-0.58-0.26c-0.18-0.25-0.25-0.71-0.24-1.12
				C499.4,452.1,502.2,449.45,503.34,448.62 M503.1,446.52c-1.12,0-8.02,7.13-8.02,7.13s-0.76,3.82,2.47,4.26
				c0.47,0.06,1.32,0.09,2.43,0.09c6.47,0,21.74-0.93,21.74-0.93s-1.04-1.84-5.94-5.38s-12.67-5.16-12.67-5.16
				C503.11,446.52,503.11,446.52,503.1,446.52L503.1,446.52z"/>
		</g>
		<g>
			<path class="st2" d="M503.19,464.4c-1.4,0-2.02-0.04-2.3-0.08c-0.58-0.08-0.99-0.3-1.26-0.67c-0.45-0.62-0.46-1.59-0.41-2.13
				c2.79-2.87,6.15-6.03,7.13-6.56c1.33,0.3,7.85,1.91,12.05,4.94c2.22,1.6,3.61,2.84,4.46,3.69
				C518.51,463.84,508.17,464.4,503.19,464.4z"/>
			<path d="M506.54,456.03c1.89,0.46,7.56,2,11.27,4.68c1.05,0.76,1.91,1.43,2.61,2.01c-5,0.27-13.04,0.68-17.23,0.68
				c-1.41,0-1.96-0.05-2.16-0.07c-0.43-0.06-0.53-0.2-0.58-0.26c-0.18-0.25-0.25-0.71-0.24-1.12
				C502.6,459.51,505.4,456.86,506.54,456.03 M506.3,453.93c-1.12,0-8.02,7.13-8.02,7.13s-0.76,3.82,2.47,4.26
				c0.47,0.06,1.32,0.09,2.43,0.09c6.47,0,21.74-0.93,21.74-0.93s-1.04-1.84-5.94-5.38c-4.9-3.54-12.67-5.16-12.67-5.16
				C506.31,453.93,506.31,453.93,506.3,453.93L506.3,453.93z"/>
		</g>
		<path class="st0" d="M470.7,432.79c0,0,4.8,0.42,7.84,1.96c3.04,1.54,8.89,2.75,11.7,2.41c2.81-0.33,12.3-0.51,16.72,4.67
			c4.42,5.18-5.94,14.02-5.94,14.02l-21.35,4.44l-13.24,0.62l-9.84-18.8l4.4-10.98L470.7,432.79z"/>
		<path class="st0" d="M490.91,442.79c0,0,16.24,1.06,17.77,5.5c1.53,4.44-1.21,5.85-1.21,5.85l-4.24,4.31"/>
		<path class="st0" d="M455.61,454.29c0,0,3.99,7.7,11.54,7.49c7.55-0.21,19.9,2.05,21.81,2.87c1.91,0.81,14.23,2.21,15.13,0.45
			s8.26-8.9,2.47-13.08s-17.16-5.6-21.83-3.73"/>
		<path class="st3" d="M471.87,353.62c0,0-13.91,20.84-10.26,49.61c3.65,28.76,14.78,30.36,14.78,30.36s10.35,8.43,7.55,11.91
			c-3.19,3.95-27.42,10.24-27.42,10.24s-32.51-69.21-22.86-87.63"/>
	</g>
	<path class="st3" d="M556.2,314.99c0,0-34.51,2.16-78.73,0c-18.21-0.89-28.93-18.34-61.48-18.34c-45.13,0-84.33,29.98-105.7,38.83
		c-44.28,18.34-56.6,39.66-50.31,73.02c6.26,33.24,48.01,26.39,71.62,24.88c19.14-1.22,46.25,8.24,85.87,0.12
		c41.51-8.51,43.16-4.61,60.24-7.42c17.09-2.81,32.37-6.58,52.6-15.1c40.98-17.26,67.01-17.47,65.79-19.41
		C593.02,386.64,556.2,314.99,556.2,314.99z"/>
	<path class="st3" d="M276.86,396.38"/>
	<path class="st3" d="M261.98,378.68c0,0-5.41-11.96-13.36-11.54c-7.95,0.42-10.35,8.34-10.35,8.34s11.92,3.65,14.36,5.58
		s3.1,1.09,3.1,1.09s-1.83-3.58-13.18-1.68c-8.15,1.36-5.07,15.85-5.07,15.85s3.67-4.2,7.91-5.83c4.24-1.63,10.45,1.62,10.45,1.62
		s-4.93-0.95-7.76,0.14c-2.83,1.09-2.1,14.13-2.1,14.13s7.46-5.16,15.51-1.9"/>
	<path class="st0" d="M313.88,450.62"/>
	<path class="st3" d="M262.2,378.65c0,0-16.09-1.14-11.83-11.78c2-5.01,0.43-15.02,0.43-15.02s7.36,9.68,9.21,11.31
		c1.85,1.63,6.29,1.58,6.29,1.58s-7-3.98-5.21-9.66c1.62-5.14,3.59-9.27,3.59-9.27s1.79,5.09,2.87,8.14c1,2.83,4.29,1.12,6.22,4.67"
		/>
	<path class="st3" d="M261.77,402.21c0,0-16.05,1.59-11.49,12.12c2.14,4.95,0.85,15,0.85,15s7.08-9.89,8.89-11.57
		s6.24-1.76,6.24-1.76s-6.88,4.18-4.93,9.81c1.76,5.1,3.86,9.17,3.86,9.17s1.65-5.14,2.64-8.22c0.92-2.86,4.26-1.24,6.08-4.84"/>
	<path class="st3" d="M443.99,303.48c0,0-6.2-7.37-4.97-10.88c1.23-3.51-2.23-7.84-2.23-7.84s-3.64,8.14-3.43,8.47
		c0.21,0.33-2.14,3.75-5.83,1.84c-3.69-1.91-5.66-6.73-8.81-9.23c-3.15-2.5-25.75-5.8-25.75-5.8s14.86,7.73,13.08,11.21
		c-1.77,3.49-11.48,2.5-13.63,2.11c-2.15-0.39-12.75-4.38-14.45-3.26c-1.7,1.12-19.53,13.43-19.53,13.43s24.03-4.95,24.03-4.95
		s1.26,0.96,4.41,3.46"/>
</g>
<g id="Far_Legs">
</g>
<g id="Close_Legs">
	<g>
		<g>
			<path class="st2" d="M539.62,476.14c-1.4,0-2.02-0.04-2.3-0.08c-0.58-0.08-0.99-0.3-1.25-0.67c-0.45-0.62-0.46-1.59-0.41-2.13
				c2.79-2.87,6.15-6.03,7.13-6.56c1.33,0.3,7.85,1.91,12.05,4.94c2.22,1.6,3.61,2.84,4.46,3.69
				C554.94,475.58,544.6,476.14,539.62,476.14z"/>
			<path d="M542.97,467.77c1.89,0.46,7.56,2,11.27,4.68c1.05,0.76,1.91,1.43,2.61,2.01c-5.01,0.27-13.04,0.68-17.23,0.68
				c-1.41,0-1.96-0.05-2.16-0.07c-0.43-0.06-0.53-0.2-0.58-0.26c-0.18-0.25-0.25-0.71-0.24-1.12
				C539.02,471.25,541.82,468.6,542.97,467.77 M542.73,465.67c-1.12,0-8.02,7.13-8.02,7.13s-0.76,3.82,2.47,4.26
				c0.47,0.06,1.32,0.09,2.43,0.09c6.47,0,21.74-0.93,21.74-0.93s-1.04-1.84-5.94-5.38c-4.9-3.54-12.67-5.16-12.67-5.16
				C542.74,465.67,542.74,465.67,542.73,465.67L542.73,465.67z"/>
		</g>
		<g>
			<path class="st2" d="M539.89,481.8c-1.4,0-2.02-0.04-2.3-0.08c-0.58-0.08-0.99-0.3-1.25-0.67c-0.45-0.62-0.46-1.59-0.41-2.13
				c2.79-2.87,6.15-6.03,7.13-6.56c1.33,0.3,7.85,1.91,12.05,4.94c2.22,1.6,3.61,2.84,4.46,3.69
				C555.21,481.24,544.87,481.8,539.89,481.8z"/>
			<path d="M543.25,473.43c1.89,0.46,7.56,2,11.27,4.68c1.05,0.76,1.91,1.43,2.61,2.01c-5.01,0.27-13.04,0.68-17.23,0.68
				c-1.41,0-1.96-0.05-2.16-0.07c-0.43-0.06-0.53-0.2-0.58-0.26c-0.18-0.25-0.25-0.71-0.24-1.12
				C539.3,476.91,542.1,474.26,543.25,473.43 M543.01,471.33c-1.12,0-8.02,7.13-8.02,7.13s-0.76,3.82,2.47,4.26
				c0.47,0.06,1.32,0.09,2.43,0.09c6.47,0,21.74-0.93,21.74-0.93s-1.04-1.84-5.94-5.38c-4.9-3.54-12.67-5.16-12.67-5.16
				C543.02,471.33,543.01,471.33,543.01,471.33L543.01,471.33z"/>
		</g>
		<g>
			<path class="st2" d="M543.1,489.21c-1.4,0-2.02-0.04-2.3-0.08c-0.58-0.08-0.99-0.3-1.26-0.67c-0.45-0.62-0.46-1.59-0.41-2.13
				c2.79-2.87,6.15-6.03,7.13-6.56c1.33,0.3,7.85,1.91,12.05,4.94c2.22,1.6,3.61,2.84,4.46,3.69
				C558.42,488.65,548.08,489.21,543.1,489.21z"/>
			<path d="M546.45,480.84c1.89,0.46,7.56,2,11.27,4.68c1.05,0.76,1.91,1.43,2.61,2.01c-5.01,0.27-13.04,0.68-17.23,0.68
				c-1.41,0-1.96-0.05-2.16-0.07c-0.43-0.06-0.53-0.2-0.58-0.26c-0.18-0.25-0.25-0.71-0.24-1.12
				C542.5,484.31,545.3,481.66,546.45,480.84 M546.21,478.73c-1.12,0-8.02,7.13-8.02,7.13s-0.76,3.82,2.47,4.26
				c0.47,0.06,1.32,0.09,2.43,0.09c6.47,0,21.74-0.93,21.74-0.93s-1.04-1.84-5.94-5.38c-4.9-3.54-12.67-5.16-12.67-5.16
				C546.22,478.73,546.22,478.73,546.21,478.73L546.21,478.73z"/>
		</g>
		<path class="st0" d="M510.61,457.6c0,0,4.8,0.42,7.84,1.96s8.89,2.75,11.7,2.41c2.81-0.33,12.3-0.51,16.72,4.67
			s-5.94,14.02-5.94,14.02l-21.35,4.44l-13.24,0.62l-9.84-18.8l4.4-10.98L510.61,457.6z"/>
		<path class="st0" d="M530.81,467.6c0,0,16.24,1.06,17.77,5.5c1.53,4.44-1.21,5.85-1.21,5.85l-4.24,4.31"/>
		<path class="st0" d="M495.52,479.1c0,0,3.99,7.7,11.54,7.49c7.55-0.21,19.9,2.05,21.81,2.87c1.91,0.81,14.23,2.21,15.13,0.45
			c0.9-1.76,8.26-8.9,2.47-13.08c-5.78-4.18-17.16-5.6-21.83-3.73"/>
		<path class="st3" d="M511.78,378.42c0,0-13.91,20.84-10.26,49.61c3.65,28.76,14.78,30.36,14.78,30.36s5.2,6.83,3.24,9.75
			c-2.99,4.45-23.1,12.4-23.1,12.4s-32.51-69.21-22.86-87.63"/>
	</g>
	<g>
		<g>
			<g>
				<g>
					<path class="st2" d="M394.87,479.89c-1.16,0-1.67-0.04-1.9-0.07c-0.58-0.08-0.82-0.32-0.94-0.5c-0.33-0.46-0.35-1.2-0.31-1.62
						c2.27-2.33,4.98-4.88,5.84-5.39c1.23,0.29,6.54,1.62,9.97,4.1c1.64,1.18,2.74,2.13,3.46,2.82
						C407.14,479.45,398.9,479.89,394.87,479.89z"/>
					<path d="M397.75,473.39c1.69,0.42,6.21,1.68,9.18,3.83c0.57,0.41,1.08,0.8,1.52,1.15c-4.2,0.23-10.3,0.52-13.58,0.52
						c-1.21,0-1.64-0.04-1.77-0.06c-0.04-0.01-0.22-0.03-0.26-0.09c-0.08-0.11-0.13-0.36-0.14-0.62
						C394.59,476.21,396.77,474.14,397.75,473.39 M397.48,471.28c-0.94,0-6.72,5.97-6.72,5.97s-0.63,3.2,2.07,3.57
						c0.4,0.05,1.11,0.08,2.04,0.08c5.42,0,18.21-0.78,18.21-0.78s-0.87-1.54-4.97-4.51c-4.11-2.97-10.61-4.32-10.61-4.32
						C397.49,471.28,397.48,471.28,397.48,471.28L397.48,471.28z"/>
				</g>
				<g>
					<path class="st2" d="M395.11,484.63c-1.16,0-1.68-0.04-1.91-0.07c-0.58-0.08-0.81-0.32-0.94-0.49
						c-0.33-0.46-0.35-1.18-0.32-1.62c2.27-2.32,4.98-4.88,5.84-5.39c1.23,0.29,6.54,1.62,9.97,4.1c1.64,1.18,2.74,2.13,3.46,2.82
						C407.38,484.19,399.14,484.63,395.11,484.63z"/>
					<path d="M397.98,478.13c1.69,0.42,6.21,1.68,9.18,3.83c0.57,0.41,1.08,0.8,1.52,1.15c-4.2,0.23-10.3,0.52-13.58,0.52
						c-1.21,0-1.64-0.04-1.77-0.06c-0.04-0.01-0.22-0.03-0.26-0.09c-0.08-0.11-0.13-0.36-0.14-0.62
						C394.82,480.95,397,478.88,397.98,478.13 M397.71,476.02c-0.94,0-6.72,5.97-6.72,5.97s-0.63,3.2,2.07,3.57
						c0.4,0.05,1.11,0.08,2.04,0.08c5.42,0,18.21-0.78,18.21-0.78s-0.87-1.54-4.97-4.51c-4.11-2.97-10.61-4.32-10.61-4.32
						C397.72,476.02,397.72,476.02,397.71,476.02L397.71,476.02z"/>
				</g>
				<g>
					<path class="st2" d="M397.78,490.83c-1.16,0-1.68-0.04-1.9-0.07c-0.58-0.08-0.81-0.32-0.94-0.5c-0.33-0.46-0.35-1.18-0.32-1.62
						c2.27-2.32,4.98-4.88,5.84-5.39c1.23,0.29,6.54,1.62,9.97,4.1c1.64,1.18,2.74,2.13,3.46,2.82
						C410.06,490.39,401.82,490.83,397.78,490.83z"/>
					<path d="M400.67,484.34c1.69,0.42,6.21,1.68,9.18,3.83c0.57,0.41,1.08,0.8,1.52,1.15c-4.2,0.23-10.3,0.52-13.58,0.52
						c-1.21,0-1.64-0.04-1.77-0.06c-0.04-0.01-0.22-0.03-0.26-0.09c-0.08-0.11-0.13-0.36-0.14-0.62
						C397.5,487.15,399.68,485.08,400.67,484.34 M400.39,482.22c-0.94,0-6.72,5.97-6.72,5.97s-0.63,3.2,2.07,3.57
						c0.4,0.05,1.11,0.08,2.04,0.08c5.42,0,18.21-0.78,18.21-0.78s-0.87-1.54-4.97-4.51c-4.11-2.97-10.61-4.32-10.61-4.32
						C400.4,482.22,400.4,482.22,400.39,482.22L400.39,482.22z"/>
				</g>
				<path class="st0" d="M319.41,464.52c0,0,4.02,0.35,6.57,1.64c2.54,1.29,58.6,2.3,60.95,2.02c2.36-0.28,10.31-0.43,14.01,3.91
					c3.7,4.34-4.98,11.74-4.98,11.74l-17.88,3.72l-40.82,0.52l-29.67-15.75l3.69-9.2L319.41,464.52z"/>
				<path class="st0" d="M377.17,473.53c0,0,20.49-2.16,25.22,3.97c2.4,3.12-1.01,4.9-1.01,4.9l-3.55,3.61"/>
				<path class="st0" d="M369.62,478.93c3.91-1.56,26.15-1.81,31,1.69c4.85,3.5-1.32,9.48-2.07,10.96
					c-0.75,1.47-11.07,0.31-12.67-0.38c-1.6-0.68-50.91-2.58-57.24-2.4c-6.33,0.18-14.89-5.35-19.41-8.8
					c-4.9-3.74-8.33-16.5-5.39-25.88c0.75-2.4,19.23,21.99,21.57,19.41"/>
			</g>
			<path class="st3" d="M279.26,410.04c0,0-7.66-7.36-4.14-26.56c3.52-19.2,25.47-32.9,41.33-38.26c14.21-4.8,32.78-6.51,47.78-6.51
				c17.26,0,30.28,21.27,19.41,38.83c-10.87,17.56-34.04,53.72-39.91,60.4c-5.86,6.68-13.64,12.3-6.47,20.49
				c7.55,8.63,8.63,6.47,10.79,7.55c1.43,0.72-4.44,10.37-6.47,12.94c-2.2,2.78-9.71,1.08-16.18-1.08
				c-8.14-2.71-7.44,1.01-16.18-9.71c-8.73-10.71-5.44-19.16-1.08-22.65c16.18-12.94,31.28-46.38,31.28-46.38l-14.02,11.86"/>
		</g>
		<path class="st3" d="M369.67,349.2c0,0,6.42-14.79,15.05-7.24c4.06,3.55,14.02,5.39,14.02,5.39s-11.58,3.73-13.73,4.93
			c-2.16,1.2-3.58,5.4-3.58,5.4s6.08-5.28,10.84-1.7c4.31,3.24,7.55,6.47,7.55,6.47s-5.39,0-8.63,0c-3,0-2.48,3.68-6.47,4.31"/>
	</g>
</g>
<g id="Head">
	<path class="st3" d="M551.05,279.57c-0.1,4.02-3.43,11.15-1.83,15.97c1.6,4.83,7.23,16.71,7.23,16.71l-50.06,11.46l7.53-54.6
		C513.93,269.11,551.7,254.04,551.05,279.57z"/>
	<path class="st0" d="M508.34,242.99c-0.16-0.71-0.94-3.48-2.02-3.45c-1.88,0.04-4.63,1.44-3.61-1.98c0.63-2.12-4.75-4.17-4.75-4.17
		s0.81,2.79-0.61,4.85c-1.42,2.06-4.01,3.56-4.01,3.56c1.32-2.4-3.04-8.71-3.04-8.71s-1.44,5.47-5.82,7.75s-10.24,10.98-10.24,10.98
		s-3.36,3.45-3.08,0.48c0.28-2.97,2.81-6.49,2.81-6.49s-8.22,3.52-10.85,8.33c-1.16,2.12-0.02,6.26-0.41,9.12
		c1.35,1.26,2.39,2.88,2.94,4.78c0.85,2.92,0.39,5.91-1.03,8.35c0.52,0.82,0.94,1.72,1.22,2.7c1.14,3.93-0.08,7.98-2.82,10.64
		c8.71,23.65,39.62,42.67,39.62,42.67l11.76,9.65l15.16-10.19l2.28-13.38l-7.42-15.06c0,0-8.1-22.54,2.33-44.48
		C531.76,248.43,522.99,243,508.34,242.99z"/>
	<path class="st4" d="M530.13,329.85c2.12,0.05,4.07-0.47,4.07-0.47s-1.55-0.59-3.51-1.91c0.36-1.13,0.66-2.81,0.78-5.33
		c0.4-8.44-4.55-17.04-4.55-17.04s2.44,12.16,0.91,14.15c-1,1.3-1.94,2.35-2.47,2.92c-0.02-0.03-0.04-0.06-0.07-0.1
		c0.54-1.15,1.3-4.43-0.03-13.25c-1.85-12.29-6.52-9.91-6.52-9.91s3.2,4.55,3.94,9.46c0.55,3.63-1.17,7.88-2.1,9.86l-0.33-0.1
		c0.28-1.66,0.69-4.67,0.35-6.93c-0.49-3.28-5.36-5.85-5.36-5.85s0.64,1.29,1.17,3.34c-0.39-0.5-0.85-1-1.41-1.48
		c-4.22-3.61-7.35-5.69-9.17-6.77c-2.34-3.13-3.16-6.12-3.16-6.12s-1.9,5.17-0.08,7.93c1.82,2.77,5.88,5.68,5.88,5.68
		s-0.31-0.11-0.81-0.31l-0.07-0.25c0,0-0.09,0.04-0.24,0.12c-2-0.83-6.17-2.86-8.21-5.95c-2.73-4.15-3.39-9.67-3.39-9.67
		s-5.06,1.35,1.77,11.73c0.12,0.18,0.23,0.35,0.35,0.52c0.05,1.21,0.3,2.91,1.31,3.3c0.47,0.18,1.13,0.54,1.8,1.02
		c0.5,0.64,0.97,1.2,1.41,1.69c-0.69,0.41-1.34,0.81-1.82,1.16c-0.06,0.04-0.12,0.06-0.17,0.1c-2.85-3.12-6.59-9.46-6.59-9.46
		s0.94,4.39,3.35,9.09c-1.41-0.79-2.7-2.09-3.23-2.87c-0.96-1.44-4.72-0.27-4.72-0.27s4.29,3.87,5.74,6.89
		c0.95,1.97,3.55,1.57,5.26,1.06c0.1,0.13,0.21,0.26,0.31,0.39c-1.21,0.88-3.09,2.11-4.81,2.65c-2.82,0.87-8.54-4.29-8.54-4.29
		s2.64,3.52,10.01,9.04c3.53,2.64,6.83,1.94,9.31,0.5c0.67,0.43,1.4,0.81,2.16,1.02c0.44,0.68,1.01,1.47,1.73,2.36
		c-0.8,0.25-1.63,0.44-2.44,0.5c-4.96,0.36-10.1-1.76-10.1-1.76s-1.29,5.08,11.1,4.18c1.42-0.1,2.67-0.23,3.8-0.37
		c0.79,0.73,1.61,1.41,2.46,2.03c-4.13,0.64-7.84,1.12-7.84,1.12s4.57,1.59,11.3,1.11c3.82,2.16,7.12,3.19,7.12,3.19
		s-2.19-1.58-4.54-3.52c0.69-0.12,1.38-0.26,2.06-0.45c0.27-0.07,0.5-0.15,0.75-0.22c0.14,0.11,0.26,0.22,0.41,0.34
		c9.72,7.75,11.52,2.83,11.52,2.83s-5.29-1.13-9.16-4.14C529.22,331.35,529.94,330.44,530.13,329.85z"/>
	<g>
		<path class="st2" d="M633.11,417.74c-0.44,0-0.87-0.01-1.29-0.04c1.54-1.75,3.98-5.11,6.13-10.59c0.95-2.42,2.21-5.34,3.43-8.17
			c4.31-9.97,5.86-14.03,5.43-15.83c2.17-1.39,13.42-4.97,19.61-4.97c1.45,0,2.12,0.22,2.39,0.39l-21.34,36.06
			C646,415.18,639.27,417.74,633.11,417.74z"/>
		<path d="M666.43,377.14v2c0.34,0,0.62,0.01,0.85,0.03l-20.49,34.61c-1.81,0.71-7.49,2.76-12.91,2.95c1.5-2.01,3.34-5.02,5-9.25
			c0.95-2.41,2.2-5.32,3.42-8.13c3.93-9.09,5.62-13.34,5.59-15.68c2.93-1.45,13.04-4.52,18.53-4.53L666.43,377.14 M666.43,377.14
			c-7,0-21.79,4.76-20.71,5.92c1.39,1.49-5.36,15.21-8.69,23.69c-3.33,8.47-7.35,11.7-7.35,11.7c1.11,0.21,2.26,0.29,3.44,0.29
			c7.23,0,15.06-3.36,15.06-3.36l21.81-36.84C669.83,377.53,668.46,377.13,666.43,377.14L666.43,377.14z"/>
	</g>
	<g>
		<path class="st2" d="M614.64,428.57c2.91-3.34,9.64-11.49,12.29-18.25c3.05-7.77,1.31-16.14-0.37-19.15
			c2.87-1.22,14.59-3.62,21.78-3.62c3.02,0,4.09,0.43,4.44,0.66l-18.17,32.64C632.94,421.87,621.88,428.42,614.64,428.57z"/>
		<path d="M648.35,386.55v2h0c1.46,0,2.4,0.1,2.99,0.22l-17.46,31.37c-1.97,1.18-10.3,6.01-16.86,7.18
			c3.34-4.01,8.56-10.81,10.85-16.63c2.9-7.37,1.68-15.09,0.07-18.94c3.74-1.19,13.73-3.2,20.41-3.2L648.35,386.55 M648.35,386.55
			c-8.63,0-24.08,3.4-23.07,4.49c1.39,1.49,4.06,10.44,0.73,18.91c-3.33,8.47-13.46,19.46-13.46,19.46c0.58,0.11,1.2,0.16,1.84,0.16
			c8.18,0,20.97-8,20.97-8l18.57-33.36C653.76,387.01,651.51,386.55,648.35,386.55L648.35,386.55z"/>
	</g>
	<path class="st3" d="M554.08,309.84c0,0-22.36-11.6-26.1-25.64c-3.73-14.03-1.52-25.79-1.52-25.79s-10.83,20.3-9.36,32.41
		c1.48,12.11,15.54,22.29,14.33,31.06c-1.2,8.78-12.6,17.23-19.05,15.64c-6.44-1.59-14.12-7.8-14.12-7.8s0.14,35.23,7.76,43.99
		s13.2,12.05,33.24,22.38c13.45,6.93,45.6-0.51,45.6-0.51s53.64,12.19,66.82,6.1s15.17-5.43,16.87-15.12
		c1.7-9.69-4.81-19-11.02-19.74c-7.42-0.89-18.38-16.08-36.76-23.83c-6.12-2.58-6.57-12.49-10.06-19.55
		c-3.49-7.07-17.7-12.62-32.02-14.46C564.38,307.15,557.27,311.56,554.08,309.84z"/>
	<path class="st3" d="M519.74,362.6c0,0-8.03-6.59-16.23-1.08c-8.2,5.52-9.12,13.76-9.12,13.76s13.15-4.65,16.09-4.6
		c2.94,0.05,3.46-1.09,3.46-1.09s-2.63-1.83-14.08,7.13c-8.22,6.43-2.12,16.69-2.12,16.69s2.98-5.93,7.08-10.05
		s11.22-5.42,11.22-5.42s-5.33,2.4-8.06,5.15s0.64,13.3,0.64,13.3s6.74-9.2,15.78-11.67"/>
	<path class="st3" d="M539.74,389.55c0,0-6.14,14.97-15.93,10.47s-9.34-4.34-9.34-4.34s4.54-2.07,7.55-3.76
		c3.01-1.69,6.06-5.64,6.06-5.64s-3.12,5.11-6.98,4.44c-5.32-0.92-10.27-4.07-10.27-4.07s5.06-7.96,6.51-6.56
		c1.45,1.41,6.33,4.22,8.36,1.97s7.06-6.2,7.06-6.2"/>
	<g>
		<circle cx="572.07" cy="348.02" r="19.71"/>
	</g>
	<path class="st0" d="M662.9,381.54c0,0-9.2-4.17-6.28-10.38s12.52-3,13.49-2.97c0.97,0.03,5.75,2.12,5.75,2.12s1.88,2,0.82,4.87
		c-1.06,2.88-7.25,6.56-9.06,6.5C665.81,381.63,662.9,381.54,662.9,381.54z"/>
	<path class="st3" d="M549.79,311.13c0,0-7.98-10.23,0.7-16.61s13.51-8.14,13.51-8.14s-7.72,4.65-7.7,8.1c0.02,3.45,2,8.03,2,8.03
		s-1.02-6.89,2.85-7.49s9.66-4.09,9.66-4.09s0.03,4.6-1.9,5.19c-1.93,0.59-6.76,3.5-5.77,6.37c0.99,2.87,2,9.18,2,9.18"/>
	<path class="st3" d="M570.32,386.72c0,0,6.02,5.68-1.83,11.69s-18.29,11.13-18.29,11.13s4.86-11.9,5.75-14.69
		c0.9-2.8,2.63-3.45,2.63-3.45s-1.76,3.02-9.2,12.07c-9.24,11.23-18.64-0.58-18.64-0.58s4.35-2.13,9.57-4.69
		c5.22-2.56,9.18-9.9,9.18-9.9s-3.07,4.74-6.55,6.45c-3.48,1.71-13.41-3.14-13.41-3.14s11.14-0.97,16.36-8.75"/>
	<path class="st3" d="M542.5,267.25c0,0-2.33-5.04-5.49-7.19c-3.15-2.14-6.05-2.96-6.05-2.96s1.93,1.67,4.37,4.3
		c2.44,2.63,0.33,2.93,0.33,2.93s-0.05-0.27-1.34-1.89c-1.28-1.62-2.61-1.37-2.61-1.37l-1.32,0.25c0,0,1.58,1.07,0.51,2.65
		c-1.07,1.58-2.14,3.15-2.14,3.15"/>
	<g>
		<path class="st2" d="M567.68,338.36c0.57-0.2,1.14-0.33,1.71-0.41c-0.04-0.17-0.06-0.34-0.12-0.5c-0.36-1.03-1.09-1.81-1.98-2.28
			c-0.22,0.06-0.44,0.12-0.66,0.19c-2.17,0.76-3.98,2.08-5.34,3.74c0.03,0.35,0.08,0.71,0.2,1.06c0.29,0.84,0.83,1.51,1.51,1.99
			C564.03,340.44,565.64,339.07,567.68,338.36z"/>
	</g>
	<g>
		<path class="st2" d="M561.72,346.57c0.03-1.21,0.3-2.39,0.78-3.47c-0.38-0.41-0.92-0.67-1.52-0.69c-1.01-0.03-1.86,0.64-2.12,1.57
			c-0.02,0.08-0.03,0.16-0.05,0.24c-0.02,0.09-0.03,0.19-0.04,0.29c-0.03,1.19,0.9,2.18,2.09,2.21
			C561.17,346.73,561.46,346.68,561.72,346.57z"/>
	</g>
</g>
</svg>
