<svg xmlns="http://www.w3.org/2000/svg" viewBox="0 0 565.05 275.29"><defs><style>.cls-1{fill:#ffdcd4;}.cls-1,.cls-2,.cls-4{stroke:#000;stroke-miterlimit:10;stroke-width:2px;}.cls-2{fill:none;}.cls-3{fill:#fff;}.cls-4{fill:#9e815c;}.cls-5{fill:#60554a;}</style></defs><g id="Tail"><path class="cls-1" d="M190.59,131.42s24.09-8.42-34.51,9.71S35.83,158.33,35.83,111.46c0-43.67,36.2-91.34,100-91.34,45.43,0,61.64,37.75,84.75,37.75s55-39.15,55-39.15a7.07,7.07,0,0,0-3-7.41c-4.19-2.76-6.49,1.67-9.53,5s-31,26.22-43.56,25.3S184,2,137.94,2C84.35,2,4,45.14,4,108.54,4,187,56.81,212.9,145.29,209.08s81.59-13.74,81.59-13.74Z" transform="translate(-2.95 -1)"/><path class="cls-2" d="M118.57,150.77c-8.55-.9-16.42,1.1-16.42,29.08,0,23.84,7.65,30.56,16.18,29" transform="translate(-2.95 -1)"/><path class="cls-2" d="M80.35,152c-7.16-1.63-14-.66-16.93,24-2.46,21,3.34,27.7,10.73,27.19" transform="translate(-2.95 -1)"/><path class="cls-2" d="M51.93,142.93c-6.08-4.1-12.66-6.08-22.47,11.7-8.36,15.15-5.4,20.83.43,25.33" transform="translate(-2.95 -1)"/><path class="cls-2" d="M48.79,66.34c2-2.89,2.67-6.15-8.57-12.05-9.57-5-13.72-3.69-14.71-.29" transform="translate(-2.95 -1)"/><path class="cls-2" d="M84.94,31.74c1.85-1.21,3-2.94-2.11-9.14-4.39-5.28-7.14-5.52-8.54-3.78" transform="translate(-2.95 -1)"/><path class="cls-2" d="M128.65,19.57c2.21,0,4.14-.81,3.18-8.82-.82-6.82-3-8.51-5.12-7.81" transform="translate(-2.95 -1)"/><path class="cls-2" d="M171.17,28.87c2,1,4.05,1.2,6.92-6.34,2.44-6.42,1.29-8.92-.91-9.29" transform="translate(-2.95 -1)"/><path class="cls-2" d="M220.94,57.38c2.2-.17,4.08-1.11,2.54-9-1.3-6.74-3.6-8.27-5.66-7.42" transform="translate(-2.95 -1)"/><path class="cls-2" d="M36.17,107.55c.58-3.47-.45-6.7-15.92-7.07-13.19-.31-17,2.72-16.21,6.22" transform="translate(-2.95 -1)"/></g><g id="Layer_1" data-name="Layer 1"><path class="cls-2" d="M151.78,142.39c-9.63-.35-18.26,2.48-16.12,33.93,1.82,26.79,10.88,33.76,20.29,31.38" transform="translate(-2.95 -1)"/><path class="cls-3" d="M310.75,227.3a16.26,16.26,0,0,1-1.9-.07,1.23,1.23,0,0,1-.94-.5,2.67,2.67,0,0,1-.32-1.61,53.16,53.16,0,0,1,5.84-5.4c1.24.29,6.55,1.62,10,4.1a32,32,0,0,1,3.46,2.82C323,226.86,314.78,227.3,310.75,227.3Z" transform="translate(-2.95 -1)"/><path d="M313.64,220.8c1.69.42,6.2,1.68,9.18,3.83.57.41,1.08.8,1.52,1.15-4.21.22-10.3.52-13.59.52a14.38,14.38,0,0,1-1.76-.06s-.23,0-.27-.09a1.3,1.3,0,0,1-.14-.61,63.58,63.58,0,0,1,5.06-4.74m-.27-2.11c-.94,0-6.72,6-6.72,6s-.64,3.2,2.07,3.57a16.39,16.39,0,0,0,2,.08c5.43,0,18.21-.78,18.21-.78s-.86-1.54-5-4.51-10.61-4.32-10.61-4.32Z" transform="translate(-2.95 -1)"/><path class="cls-3" d="M311,232a16.51,16.51,0,0,1-1.91-.07,1.28,1.28,0,0,1-.94-.49,2.58,2.58,0,0,1-.31-1.62,51.36,51.36,0,0,1,5.84-5.4c1.23.29,6.54,1.62,10,4.1a31.89,31.89,0,0,1,3.45,2.82C323.26,231.6,315,232,311,232Z" transform="translate(-2.95 -1)"/><path d="M313.87,225.54c1.69.42,6.21,1.68,9.18,3.83.57.42,1.08.8,1.52,1.15-4.2.22-10.3.52-13.58.52a14.64,14.64,0,0,1-1.77-.06s-.23,0-.27-.09a1.44,1.44,0,0,1-.14-.61,63.58,63.58,0,0,1,5.06-4.74m-.27-2.11c-.94,0-6.72,6-6.72,6s-.64,3.2,2.07,3.56a16.58,16.58,0,0,0,2,.08c5.42,0,18.21-.78,18.21-.78s-.87-1.54-5-4.51-10.61-4.32-10.61-4.32Z" transform="translate(-2.95 -1)"/><path class="cls-3" d="M313.67,238.24a17.44,17.44,0,0,1-1.9-.06,1.25,1.25,0,0,1-.95-.5,2.58,2.58,0,0,1-.31-1.62,52.89,52.89,0,0,1,5.84-5.39c1.23.29,6.54,1.62,10,4.1a32.23,32.23,0,0,1,3.46,2.81C325.94,237.8,317.7,238.24,313.67,238.24Z" transform="translate(-2.95 -1)"/><path d="M316.55,231.75c1.69.41,6.2,1.67,9.18,3.83.58.41,1.08.79,1.52,1.14-4.2.23-10.3.52-13.58.52-1.21,0-1.64,0-1.77-.05s-.22,0-.26-.09a1.23,1.23,0,0,1-.14-.62,65.08,65.08,0,0,1,5.05-4.73m-.27-2.12c-.94,0-6.72,6-6.72,6s-.63,3.2,2.07,3.57a19.63,19.63,0,0,0,2,.07c5.42,0,18.21-.78,18.21-.78s-.87-1.54-5-4.5-10.62-4.33-10.62-4.33Z" transform="translate(-2.95 -1)"/><path class="cls-1" d="M235.3,211.92a21.77,21.77,0,0,1,6.57,1.65c2.54,1.29,58.6,2.3,60.95,2s10.31-.43,14,3.91-5,11.75-5,11.75L294,235l-40.82.52-29.67-15.75,3.69-9.2Z" transform="translate(-2.95 -1)"/><path class="cls-1" d="M293.05,220.94s20.49-2.15,25.22,4c2.4,3.11-1,4.9-1,4.9l-3.56,3.61" transform="translate(-2.95 -1)"/><path class="cls-1" d="M285.5,226.34c3.92-1.57,26.15-1.81,31,1.69s-1.32,9.48-2.07,11-11.07.31-12.68-.38-50.91-2.57-57.23-2.4-14.9-5.35-19.42-8.8c-4.9-3.73-8.32-16.49-5.39-25.88.75-2.4,19.23,22,21.57,19.41" transform="translate(-2.95 -1)"/><path class="cls-4" d="M253.15,205.84c-7.17-8.19.6-13.81,6.47-20.49,3.7-4.22,15.11-21.78,25.75-38.57-6.31.39-12.63,3.25-19,5.69a87,87,0,0,1-12.6,3.9c-1,.22-2,.41-3.05.6-7.64,13.07-18,28.92-26.73,35.93-4.37,3.49-7.66,11.94,1.07,22.65s8.05,7,16.18,9.71c6.47,2.15,14,3.86,16.18,1.08,2-2.58,7.9-12.23,6.47-13C261.77,212.31,260.7,214.47,253.15,205.84Z" transform="translate(-2.95 -1)"/><path class="cls-3" d="M389.71,234.33a19.42,19.42,0,0,1-2.3-.08,1.76,1.76,0,0,1-1.26-.67,3.45,3.45,0,0,1-.4-2.13c2.79-2.87,6.15-6,7.13-6.56,1.33.31,7.85,1.91,12,4.94a36.68,36.68,0,0,1,4.47,3.69C405,233.77,394.69,234.33,389.71,234.33Z" transform="translate(-2.95 -1)"/><path d="M393.07,226c1.88.46,7.54,2,11.27,4.68,1.05.76,1.91,1.44,2.6,2-5,.27-13,.68-17.23.68a17.19,17.19,0,0,1-2.16-.08c-.43-.06-.54-.2-.58-.26a2,2,0,0,1-.25-1.12,75,75,0,0,1,6.35-5.92m-.24-2.1c-1.12,0-8,7.13-8,7.13s-.75,3.82,2.48,4.25a19.71,19.71,0,0,0,2.43.1c6.47,0,21.74-.94,21.74-.94s-1-1.84-5.94-5.38-12.67-5.16-12.67-5.16Z" transform="translate(-2.95 -1)"/><path class="cls-3" d="M390,240a18.31,18.31,0,0,1-2.3-.09,1.76,1.76,0,0,1-1.26-.67,3.39,3.39,0,0,1-.4-2.13c2.79-2.87,6.15-6,7.12-6.56,1.33.31,7.86,1.91,12.05,4.94a36.37,36.37,0,0,1,4.46,3.69C405.31,239.43,395,240,390,240Z" transform="translate(-2.95 -1)"/><path d="M393.34,231.62c1.89.46,7.56,2,11.28,4.68,1.05.76,1.91,1.43,2.6,2-5,.27-13,.67-17.23.67a18.82,18.82,0,0,1-2.17-.07c-.43-.06-.53-.2-.57-.26a2,2,0,0,1-.25-1.12,76.81,76.81,0,0,1,6.34-5.92m-.24-2.1c-1.11,0-8,7.13-8,7.13s-.75,3.82,2.47,4.25A20.56,20.56,0,0,0,390,241c6.47,0,21.74-.93,21.74-.93s-1-1.84-5.94-5.38-12.67-5.16-12.67-5.16Z" transform="translate(-2.95 -1)"/><path class="cls-3" d="M393.19,247.4a19.42,19.42,0,0,1-2.3-.08,1.76,1.76,0,0,1-1.26-.67,3.36,3.36,0,0,1-.4-2.13c2.79-2.87,6.15-6,7.12-6.56,1.33.3,7.86,1.91,12,4.94a36.37,36.37,0,0,1,4.46,3.69C408.51,246.84,398.17,247.4,393.19,247.4Z" transform="translate(-2.95 -1)"/><path d="M396.54,239c1.89.46,7.56,2,11.28,4.68,1.05.76,1.91,1.43,2.6,2-5,.28-13,.68-17.23.68a19,19,0,0,1-2.17-.07c-.42-.06-.53-.2-.57-.26a2.07,2.07,0,0,1-.25-1.12,76.81,76.81,0,0,1,6.34-5.92m-.24-2.1c-1.11,0-8,7.12-8,7.12s-.75,3.82,2.48,4.26a22.67,22.67,0,0,0,2.43.09c6.47,0,21.74-.93,21.74-.93s-1-1.84-5.94-5.38-12.67-5.16-12.67-5.16Z" transform="translate(-2.95 -1)"/><path class="cls-1" d="M360.7,215.79a26.14,26.14,0,0,1,7.84,2c3,1.54,8.89,2.75,11.7,2.41s12.3-.51,16.72,4.68-5.94,14-5.94,14l-21.35,4.43-13.24.62-9.84-18.8,4.4-11Z" transform="translate(-2.95 -1)"/><path class="cls-1" d="M380.91,225.79s16.24,1.06,17.77,5.5-1.21,5.85-1.21,5.85l-4.24,4.31" transform="translate(-2.95 -1)"/><path class="cls-1" d="M345.61,237.29s4,7.7,11.55,7.49,19.89,2.05,21.81,2.87,14.23,2.21,15.12.45,8.26-8.91,2.48-13.08-17.16-5.6-21.84-3.74" transform="translate(-2.95 -1)"/><path class="cls-4" d="M361.87,136.62s-13.9,20.84-10.25,49.6,14.77,30.37,14.77,30.37,10.36,8.43,7.55,11.9c-3.19,4-27.41,10.24-27.41,10.24s-32.51-69.2-22.86-87.62" transform="translate(-2.95 -1)"/><path class="cls-4" d="M446.2,98s-34.51,2.16-78.73,0C349.26,97.1,338.54,79.65,306,79.65c-45.13,0-84.33,30-105.69,38.83-44.28,18.34-56.6,39.66-50.32,73s48,26.39,71.63,24.88c19.14-1.22,46.25,8.24,85.87.12,41.5-8.51,43.15-4.61,60.24-7.42a216.45,216.45,0,0,0,52.6-15.1c41-17.26,67-17.47,65.79-19.41C483,169.64,446.2,98,446.2,98Z" transform="translate(-2.95 -1)"/><path class="cls-4" d="M166.86,179.38" transform="translate(-2.95 -1)"/><path class="cls-4" d="M152,161.68s-5.4-12-13.35-11.54-10.35,8.35-10.35,8.35,11.92,3.64,14.36,5.58,3.11,1.09,3.11,1.09-1.84-3.57-13.18-1.68c-8.15,1.36-5.08,15.85-5.08,15.85s3.67-4.19,7.91-5.82,10.45,1.61,10.45,1.61-4.92-.94-7.75.14-2.1,14.13-2.1,14.13,7.46-5.17,15.5-1.9" transform="translate(-2.95 -1)"/><path class="cls-1" d="M203.88,233.62" transform="translate(-2.95 -1)"/><path class="cls-4" d="M152.2,161.65s-16.09-1.14-11.84-11.78c2-5,.43-15,.43-15s7.36,9.68,9.21,11.31,6.29,1.59,6.29,1.59-7-4-5.21-9.67a79.72,79.72,0,0,1,3.59-9.27l2.87,8.14c1,2.83,4.29,1.12,6.22,4.67" transform="translate(-2.95 -1)"/><path class="cls-4" d="M151.77,185.21s-16,1.6-11.49,12.12c2.14,4.95.85,15,.85,15s7.09-9.89,8.89-11.58,6.24-1.76,6.24-1.76-6.88,4.18-4.94,9.81a79.72,79.72,0,0,0,3.86,9.16l2.64-8.21c.91-2.86,4.26-1.24,6.08-4.85" transform="translate(-2.95 -1)"/><path class="cls-4" d="M334,86.48s-6.2-7.37-5-10.88-2.23-7.84-2.23-7.84-3.63,8.14-3.43,8.47-2.13,3.75-5.83,1.85-5.66-6.74-8.81-9.24S283,63,283,63s14.86,7.73,13.09,11.21-11.48,2.51-13.63,2.12S269.68,72,268,73.1s-19.54,13.44-19.54,13.44l24-5s1.26,1,4.4,3.46" transform="translate(-2.95 -1)"/></g><g id="Close_Legs" data-name="Close Legs"><path class="cls-3" d="M429.62,259.14a19.29,19.29,0,0,1-2.3-.08,1.76,1.76,0,0,1-1.26-.67,3.36,3.36,0,0,1-.4-2.13c2.79-2.87,6.14-6,7.12-6.56,1.33.3,7.85,1.91,12.05,4.94a37.18,37.18,0,0,1,4.46,3.69C444.94,258.58,434.6,259.14,429.62,259.14Z" transform="translate(-2.95 -1)"/><path d="M433,250.77c1.89.46,7.56,2,11.27,4.68,1.05.76,1.91,1.43,2.61,2-5,.27-13,.67-17.23.67a18.67,18.67,0,0,1-2.17-.07c-.43-.06-.53-.2-.58-.26a2.16,2.16,0,0,1-.24-1.12,73.68,73.68,0,0,1,6.34-5.92m-.24-2.1c-1.12,0-8,7.12-8,7.12s-.76,3.82,2.47,4.26a22.89,22.89,0,0,0,2.44.09c6.47,0,21.73-.93,21.73-.93s-1-1.84-5.93-5.38-12.67-5.16-12.67-5.16Z" transform="translate(-2.95 -1)"/><path class="cls-3" d="M429.89,264.8a19.42,19.42,0,0,1-2.3-.08,1.75,1.75,0,0,1-1.25-.67,3.37,3.37,0,0,1-.41-2.13c2.8-2.87,6.15-6,7.13-6.56,1.33.3,7.85,1.91,12.05,4.94a37.18,37.18,0,0,1,4.46,3.69C445.21,264.24,434.87,264.8,429.89,264.8Z" transform="translate(-2.95 -1)"/><path d="M433.25,256.43c1.89.46,7.56,2,11.27,4.68,1.05.76,1.91,1.43,2.61,2-5,.28-13,.68-17.24.68a18.57,18.57,0,0,1-2.16-.07c-.43-.06-.53-.2-.58-.26a2.16,2.16,0,0,1-.24-1.12,73.68,73.68,0,0,1,6.34-5.92m-.24-2.1c-1.12,0-8,7.12-8,7.12s-.76,3.82,2.47,4.26a22.67,22.67,0,0,0,2.43.09c6.48,0,21.74-.93,21.74-.93s-1-1.84-5.94-5.38S433,254.33,433,254.33Z" transform="translate(-2.95 -1)"/><path class="cls-3" d="M433.1,272.21a18.17,18.17,0,0,1-2.3-.09,1.72,1.72,0,0,1-1.26-.66,3.39,3.39,0,0,1-.41-2.14c2.8-2.87,6.15-6,7.13-6.55,1.33.3,7.85,1.9,12.05,4.94a36.23,36.23,0,0,1,4.46,3.69C448.42,271.65,438.08,272.21,433.1,272.21Z" transform="translate(-2.95 -1)"/><path d="M436.45,263.84c1.89.46,7.56,2,11.27,4.68,1,.76,1.91,1.43,2.61,2-5,.28-13,.68-17.24.68a17.19,17.19,0,0,1-2.16-.08c-.43-.05-.53-.2-.58-.26a2.11,2.11,0,0,1-.24-1.12,71.6,71.6,0,0,1,6.34-5.91m-.24-2.11c-1.12,0-8,7.13-8,7.13s-.76,3.82,2.47,4.26a22.8,22.8,0,0,0,2.43.09c6.48,0,21.74-.93,21.74-.93s-1-1.84-5.94-5.38-12.67-5.17-12.67-5.17Z" transform="translate(-2.95 -1)"/><path class="cls-1" d="M400.61,240.6a25.87,25.87,0,0,1,7.84,2c3,1.54,8.88,2.74,11.7,2.41s12.3-.51,16.72,4.67-5.95,14-5.95,14l-21.34,4.44-13.24.62-9.84-18.8,4.4-11Z" transform="translate(-2.95 -1)"/><path class="cls-1" d="M420.81,250.6s16.24,1.05,17.78,5.5-1.21,5.84-1.21,5.84l-4.25,4.31" transform="translate(-2.95 -1)"/><path class="cls-1" d="M385.52,262.1s4,7.7,11.54,7.49,19.9,2.05,21.81,2.86,14.23,2.21,15.13.45,8.26-8.9,2.47-13.08-17.16-5.6-21.83-3.73" transform="translate(-2.95 -1)"/><path class="cls-4" d="M401.78,161.42S387.87,182.27,391.52,211s14.78,30.36,14.78,30.36,5.2,6.83,3.23,9.75c-3,4.45-23.1,12.4-23.1,12.4s-32.51-69.21-22.86-87.63" transform="translate(-2.95 -1)"/><path class="cls-3" d="M284.87,262.89a16.12,16.12,0,0,1-1.9-.07,1.25,1.25,0,0,1-1-.5,2.66,2.66,0,0,1-.31-1.61,53.16,53.16,0,0,1,5.84-5.4c1.23.29,6.54,1.63,10,4.1a33.31,33.31,0,0,1,3.46,2.82C297.14,262.45,288.9,262.89,284.87,262.89Z" transform="translate(-2.95 -1)"/><path d="M287.75,256.39c1.69.42,6.21,1.68,9.18,3.83.58.42,1.08.8,1.52,1.15-4.2.23-10.3.52-13.58.52a14.64,14.64,0,0,1-1.77-.06s-.22,0-.26-.09a1.19,1.19,0,0,1-.14-.61,67.73,67.73,0,0,1,5.05-4.74m-.27-2.11c-.94,0-6.72,6-6.72,6s-.63,3.2,2.07,3.56a16.58,16.58,0,0,0,2,.08c5.42,0,18.21-.78,18.21-.78s-.87-1.54-5-4.51-10.62-4.32-10.62-4.32Z" transform="translate(-2.95 -1)"/><path class="cls-3" d="M285.11,267.63a16.36,16.36,0,0,1-1.91-.07,1.26,1.26,0,0,1-.94-.49,2.59,2.59,0,0,1-.32-1.62,51.77,51.77,0,0,1,5.84-5.39c1.23.28,6.54,1.62,10,4.09a33.31,33.31,0,0,1,3.46,2.82C297.38,267.19,289.14,267.63,285.11,267.63Z" transform="translate(-2.95 -1)"/><path d="M288,261.13c1.7.42,6.21,1.68,9.19,3.83.57.42,1.07.8,1.51,1.15-4.2.23-10.3.52-13.58.52a14.64,14.64,0,0,1-1.77-.06s-.22,0-.26-.09a1.3,1.3,0,0,1-.14-.61,67.73,67.73,0,0,1,5.05-4.74m-.27-2.11c-.93,0-6.72,6-6.72,6s-.63,3.2,2.07,3.56a16.58,16.58,0,0,0,2,.08c5.43,0,18.21-.78,18.21-.78s-.86-1.54-5-4.51S287.72,259,287.72,259Z" transform="translate(-2.95 -1)"/><path class="cls-3" d="M287.78,273.83a17.59,17.59,0,0,1-1.9-.06,1.25,1.25,0,0,1-.94-.5,2.66,2.66,0,0,1-.32-1.62,53.83,53.83,0,0,1,5.84-5.39c1.24.29,6.55,1.62,10,4.1a32,32,0,0,1,3.46,2.82C300.06,273.39,291.82,273.83,287.78,273.83Z" transform="translate(-2.95 -1)"/><path d="M290.67,267.34c1.69.42,6.2,1.68,9.18,3.83.57.41,1.07.79,1.52,1.14-4.21.23-10.31.53-13.59.53-1.2,0-1.64,0-1.77-.06s-.22,0-.26-.09a1.32,1.32,0,0,1-.14-.62,63.06,63.06,0,0,1,5.06-4.73m-.28-2.12c-.93,0-6.71,6-6.71,6s-.64,3.2,2.07,3.57a18.57,18.57,0,0,0,2,.08c5.43,0,18.21-.79,18.21-.79s-.86-1.54-5-4.5-10.61-4.33-10.61-4.33Z" transform="translate(-2.95 -1)"/><path class="cls-1" d="M209.41,247.52a21.89,21.89,0,0,1,6.57,1.64c2.55,1.29,58.6,2.3,61,2s10.3-.43,14,3.91-5,11.75-5,11.75l-17.89,3.72-40.82.52-29.67-15.76,3.69-9.2Z" transform="translate(-2.95 -1)"/><path class="cls-1" d="M267.17,256.53s20.49-2.15,25.21,4c2.41,3.12-1,4.9-1,4.9L287.82,269" transform="translate(-2.95 -1)"/><path class="cls-1" d="M259.62,261.93c3.91-1.56,26.15-1.81,31,1.69s-1.32,9.49-2.07,11-11.07.31-12.67-.38-50.91-2.57-57.24-2.4-14.89-5.35-19.41-8.79c-4.9-3.74-8.33-16.5-5.39-25.89.75-2.39,19.23,22,21.57,19.41" transform="translate(-2.95 -1)"/><path class="cls-4" d="M169.26,193s-7.66-7.36-4.14-26.56,25.47-32.9,41.33-38.26c14.21-4.8,32.78-6.5,47.77-6.5,17.26,0,30.29,21.26,19.42,38.82s-34,53.72-39.91,60.4-13.64,12.3-6.47,20.5c7.55,8.62,8.63,6.47,10.79,7.54,1.43.72-4.44,10.37-6.47,13-2.2,2.78-9.71,1.08-16.18-1.08-8.14-2.71-7.45,1-16.18-9.71s-5.44-19.16-1.08-22.65c16.18-12.94,31.28-46.37,31.28-46.37L215.4,194" transform="translate(-2.95 -1)"/><path class="cls-4" d="M259.67,132.2s6.42-14.8,15.05-7.25c4.06,3.55,14,5.4,14,5.4s-11.58,3.72-13.74,4.93-3.58,5.4-3.58,5.4,6.08-5.28,10.85-1.71a79.21,79.21,0,0,1,7.55,6.48h-8.63c-3,0-2.49,3.67-6.47,4.31" transform="translate(-2.95 -1)"/></g><g id="Head"><path class="cls-4" d="M441.05,62.57c-.11,4-3.43,11.15-1.83,16s7.23,16.72,7.23,16.72L396.4,106.71l7.53-54.6S441.7,37,441.05,62.57Z" transform="translate(-2.95 -1)"/><path class="cls-1" d="M398.34,26c-.16-.71-.94-3.47-2-3.45-1.89.05-4.63,1.45-3.61-2,.63-2.11-4.75-4.17-4.75-4.17a6.36,6.36,0,0,1-.6,4.85,14.44,14.44,0,0,1-4,3.57c1.32-2.41-3-8.71-3-8.71s-1.44,5.47-5.82,7.75-10.24,11-10.24,11-3.36,3.45-3.08.48,2.8-6.49,2.8-6.49-8.21,3.52-10.85,8.33c-1.16,2.12,0,6.26-.41,9.12a10.59,10.59,0,0,1,1.91,13.13A10.59,10.59,0,0,1,353,72.74c8.71,23.65,39.63,42.67,39.63,42.67l11.76,9.65,15.16-10.2,2.28-13.38-7.42-15.06S406.33,63.88,416.76,42C421.76,31.43,413,26,398.34,26Z" transform="translate(-2.95 -1)"/><path class="cls-5" d="M420.13,112.85a16.35,16.35,0,0,0,4.07-.47,19,19,0,0,1-3.51-1.92,21.37,21.37,0,0,0,.78-5.33c.41-8.44-4.55-17-4.55-17s2.45,12.15.92,14.14c-1,1.31-1.94,2.35-2.47,2.92l-.07-.09c.54-1.15,1.3-4.43,0-13.25-1.85-12.29-6.52-9.91-6.52-9.91a25.71,25.71,0,0,1,3.93,9.46c.55,3.63-1.16,7.88-2.1,9.86l-.33-.1a24.76,24.76,0,0,0,.35-6.93c-.5-3.28-5.37-5.85-5.37-5.85a18.24,18.24,0,0,1,1.17,3.35A9.7,9.7,0,0,0,405,90.22a68.77,68.77,0,0,0-9.17-6.78,20.32,20.32,0,0,1-3.16-6.11s-1.9,5.16-.08,7.93,5.88,5.68,5.88,5.68l-.81-.31-.06-.25-.25.12c-2-.83-6.17-2.86-8.21-6a25.76,25.76,0,0,1-3.39-9.67s-5.06,1.35,1.77,11.73l.35.52c.05,1.21.3,2.91,1.32,3.3a8.81,8.81,0,0,1,1.8,1q.76.95,1.41,1.68c-.69.41-1.33.81-1.82,1.16l-.18.1a75.13,75.13,0,0,1-6.59-9.46A41,41,0,0,0,387.17,94a10.63,10.63,0,0,1-3.23-2.87c-1-1.44-4.72-.27-4.72-.27s4.3,3.87,5.75,6.89c.94,2,3.55,1.57,5.26,1.06l.31.39a18.27,18.27,0,0,1-4.81,2.65c-2.82.88-8.54-4.29-8.54-4.29s2.64,3.52,10,9a7.92,7.92,0,0,0,9.32.5,8.37,8.37,0,0,0,2.16,1,25.83,25.83,0,0,0,1.73,2.36,10.48,10.48,0,0,1-2.44.5,25.72,25.72,0,0,1-10.1-1.76s-1.29,5.07,11.1,4.18c1.42-.1,2.67-.23,3.81-.37a27.46,27.46,0,0,0,2.45,2c-4.13.64-7.83,1.12-7.83,1.12a30.7,30.7,0,0,0,11.29,1.1,40.57,40.57,0,0,0,7.12,3.2s-2.19-1.58-4.54-3.52c.69-.12,1.37-.26,2.05-.44l.76-.23.41.34c9.71,7.75,11.52,2.83,11.52,2.83a25.88,25.88,0,0,1-9.16-4.14C419.22,114.35,419.94,113.44,420.13,112.85Z" transform="translate(-2.95 -1)"/><path class="cls-3" d="M523.11,200.74c-.44,0-.87,0-1.29,0A35.8,35.8,0,0,0,528,190.11c.95-2.42,2.21-5.35,3.43-8.17,4.31-10,5.86-14,5.43-15.83,2.17-1.39,13.42-5,19.61-5a5,5,0,0,1,2.39.39l-21.34,36.06C536,198.18,529.27,200.74,523.11,200.74Z" transform="translate(-2.95 -1)"/><path d="M556.43,160.14v2c.33,0,.62,0,.85,0l-20.49,34.61a43.19,43.19,0,0,1-12.91,2.95,40.07,40.07,0,0,0,5-9.26c.94-2.4,2.2-5.31,3.42-8.13,3.92-9.09,5.62-13.34,5.59-15.68,2.93-1.45,13-4.52,18.53-4.52v-2m0,0c-7,0-21.79,4.76-20.72,5.92,1.39,1.49-5.36,15.21-8.69,23.68s-7.34,11.71-7.34,11.71a19.29,19.29,0,0,0,3.43.29c7.23,0,15.06-3.36,15.06-3.36L560,161.54c-.15-1-1.52-1.41-3.55-1.4Z" transform="translate(-2.95 -1)"/><path class="cls-3" d="M504.64,211.57c2.91-3.34,9.64-11.49,12.3-18.25,3-7.78,1.31-16.14-.37-19.15,2.87-1.23,14.59-3.62,21.78-3.62,3,0,4.09.43,4.44.66l-18.17,32.64C522.94,204.87,511.88,211.42,504.64,211.57Z" transform="translate(-2.95 -1)"/><path d="M538.35,169.55v2h0a16.77,16.77,0,0,1,3,.21l-17.46,31.38c-2,1.18-10.31,6-16.86,7.18,3.34-4,8.56-10.81,10.85-16.64a26.94,26.94,0,0,0,.07-18.94,87.27,87.27,0,0,1,20.41-3.19v-2m0,0c-8.63,0-24.09,3.4-23.07,4.49,1.38,1.49,4.06,10.44.73,18.91s-13.46,19.46-13.46,19.46a10,10,0,0,0,1.85.16c8.17,0,21-8,21-8l18.57-33.36c-.18-1.2-2.43-1.66-5.59-1.66Z" transform="translate(-2.95 -1)"/><path class="cls-4" d="M444.08,92.84S421.72,81.24,418,67.2a64.34,64.34,0,0,1-1.53-25.79s-10.83,20.3-9.35,32.41,15.54,22.29,14.33,31.06-12.6,17.24-19,15.64-14.12-7.79-14.12-7.79.14,35.23,7.76,44,13.2,12.06,33.24,22.38c13.45,6.93,45.59-.51,45.59-.51s53.64,12.19,66.82,6.11,15.17-5.43,16.87-15.12-4.81-19-11-19.74c-7.42-.89-18.38-16.09-36.76-23.83-6.12-2.58-6.58-12.49-10.06-19.56S483,93.83,468.7,92,447.27,94.56,444.08,92.84Z" transform="translate(-2.95 -1)"/><path class="cls-4" d="M409.74,145.6s-8-6.6-16.24-1.08a20.82,20.82,0,0,0-9.11,13.76s13.15-4.65,16.09-4.6,3.45-1.09,3.45-1.09-2.62-1.83-14.07,7.13c-8.23,6.43-2.12,16.68-2.12,16.68a45.65,45.65,0,0,1,7.08-10.05c4.09-4.13,11.22-5.42,11.22-5.42s-5.33,2.4-8.06,5.15.63,13.3.63,13.3,6.75-9.2,15.79-11.67" transform="translate(-2.95 -1)"/><path class="cls-4" d="M429.74,172.55s-6.14,15-15.93,10.48-9.34-4.35-9.34-4.35,4.54-2.07,7.55-3.76,6.06-5.64,6.06-5.64-3.12,5.11-7,4.44a32.35,32.35,0,0,1-10.27-4.07s5.06-8,6.51-6.56,6.33,4.22,8.36,2a77.05,77.05,0,0,1,7.07-6.2" transform="translate(-2.95 -1)"/><circle cx="459.12" cy="130.02" r="19.71"/><path class="cls-1" d="M552.9,164.54s-9.2-4.16-6.28-10.38,12.52-3,13.49-3,5.75,2.12,5.75,2.12a4.88,4.88,0,0,1,.82,4.88c-1.06,2.87-7.26,6.56-9.07,6.5Z" transform="translate(-2.95 -1)"/><path class="cls-4" d="M439.79,94.13s-8-10.22.7-16.61S454,69.37,454,69.37s-7.72,4.66-7.7,8.11,2,8,2,8-1-6.89,2.85-7.49,9.67-4.09,9.67-4.09,0,4.59-1.9,5.18-6.76,3.5-5.78,6.37a78.59,78.59,0,0,1,2,9.18" transform="translate(-2.95 -1)"/><path class="cls-4" d="M460.32,169.72s6,5.68-1.82,11.69a127.94,127.94,0,0,1-18.3,11.13s4.86-11.9,5.75-14.69,2.63-3.45,2.63-3.45-1.76,3-9.2,12.06c-9.23,11.23-18.63-.58-18.63-.58l9.57-4.69c5.22-2.56,9.18-9.9,9.18-9.9s-3.07,4.75-6.55,6.45-13.42-3.14-13.42-3.14,11.14-1,16.37-8.74" transform="translate(-2.95 -1)"/><path class="cls-4" d="M432.5,50.25s-2.34-5-5.49-7.18a23.3,23.3,0,0,0-6.05-3s1.93,1.67,4.37,4.3.33,2.93.33,2.93a8.62,8.62,0,0,0-1.34-1.89,2.89,2.89,0,0,0-2.6-1.37l-1.33.25A1.87,1.87,0,0,1,420.9,47l-2.15,3.15" transform="translate(-2.95 -1)"/><path class="cls-3" d="M457.68,121.36a8.54,8.54,0,0,1,1.71-.42,4.6,4.6,0,0,0-.13-.5,4,4,0,0,0-2-2.28l-.65.19a12,12,0,0,0-5.34,3.74,4.48,4.48,0,0,0,.2,1.07,4.2,4.2,0,0,0,1.51,2A8.82,8.82,0,0,1,457.68,121.36Z" transform="translate(-2.95 -1)"/><path class="cls-3" d="M451.72,129.57a9,9,0,0,1,.79-3.47,2.16,2.16,0,0,0-3.65.88c0,.08,0,.16-.05.24a2.85,2.85,0,0,0,0,.29,2.14,2.14,0,0,0,2.09,2.21A2,2,0,0,0,451.72,129.57Z" transform="translate(-2.95 -1)"/></g></svg>